<svg width="49" height="49" viewBox="0 0 49 49" fill="none" xmlns="http://www.w3.org/2000/svg">
<path d="M16.375 22.875H19.625V26.125H16.375V22.875ZM16.375 29.375H19.625V32.625H16.375V29.375ZM22.875 22.875H26.125V26.125H22.875V22.875ZM22.875 29.375H26.125V32.625H22.875V29.375ZM29.375 22.875H32.625V26.125H29.375V22.875ZM29.375 29.375H32.625V32.625H29.375V29.375Z" fill="#2D3B41"/>
<path d="M13.125 40.75H35.875C37.6674 40.75 39.125 39.2924 39.125 37.5V14.75C39.125 12.9576 37.6674 11.5 35.875 11.5H32.625V8.25H29.375V11.5H19.625V8.25H16.375V11.5H13.125C11.3326 11.5 9.875 12.9576 9.875 14.75V37.5C9.875 39.2924 11.3326 40.75 13.125 40.75ZM35.875 18L35.8766 37.5H13.125V18H35.875Z" fill="#2D3B41"/>
</svg>
