<svg width="73" height="28" viewBox="0 0 73 28" fill="none" xmlns="http://www.w3.org/2000/svg">
<path d="M5.588 16.22H13.742V20H0.35V16.49L8.45 4.826H0.35V1.046H13.742V4.556L5.588 16.22ZM15.84 12.44C15.84 10.892 16.128 9.533 16.704 8.363C17.298 7.193 18.099 6.293 19.107 5.663C20.115 5.033 21.24 4.718 22.482 4.718C23.544 4.718 24.471 4.934 25.263 5.366C26.073 5.798 26.694 6.365 27.126 7.067V4.934H31.743V20H27.126V17.867C26.676 18.569 26.046 19.136 25.236 19.568C24.444 20 23.517 20.216 22.455 20.216C21.231 20.216 20.115 19.901 19.107 19.271C18.099 18.623 17.298 17.714 16.704 16.544C16.128 15.356 15.84 13.988 15.84 12.44ZM27.126 12.467C27.126 11.315 26.802 10.406 26.154 9.74C25.524 9.074 24.75 8.741 23.832 8.741C22.914 8.741 22.131 9.074 21.483 9.74C20.853 10.388 20.538 11.288 20.538 12.44C20.538 13.592 20.853 14.51 21.483 15.194C22.131 15.86 22.914 16.193 23.832 16.193C24.75 16.193 25.524 15.86 26.154 15.194C26.802 14.528 27.126 13.619 27.126 12.467ZM39.7002 7.067C40.1502 6.365 40.7712 5.798 41.5632 5.366C42.3552 4.934 43.2822 4.718 44.3442 4.718C45.5862 4.718 46.7112 5.033 47.7192 5.663C48.7272 6.293 49.5192 7.193 50.0952 8.363C50.6892 9.533 50.9862 10.892 50.9862 12.44C50.9862 13.988 50.6892 15.356 50.0952 16.544C49.5192 17.714 48.7272 18.623 47.7192 19.271C46.7112 19.901 45.5862 20.216 44.3442 20.216C43.3002 20.216 42.3732 20 41.5632 19.568C40.7712 19.136 40.1502 18.578 39.7002 17.894V27.182H35.0832V4.934H39.7002V7.067ZM46.2882 12.44C46.2882 11.288 45.9642 10.388 45.3162 9.74C44.6862 9.074 43.9032 8.741 42.9672 8.741C42.0492 8.741 41.2662 9.074 40.6182 9.74C39.9882 10.406 39.6732 11.315 39.6732 12.467C39.6732 13.619 39.9882 14.528 40.6182 15.194C41.2662 15.86 42.0492 16.193 42.9672 16.193C43.8852 16.193 44.6682 15.86 45.3162 15.194C45.9642 14.51 46.2882 13.592 46.2882 12.44ZM59.4834 0.370998L58.9434 13.304H55.0284L54.4884 0.370998H59.4834ZM57.0534 20.216C56.2434 20.216 55.5774 19.982 55.0554 19.514C54.5514 19.028 54.2994 18.434 54.2994 17.732C54.2994 17.012 54.5514 16.409 55.0554 15.923C55.5774 15.437 56.2434 15.194 57.0534 15.194C57.8454 15.194 58.4934 15.437 58.9974 15.923C59.5194 16.409 59.7804 17.012 59.7804 17.732C59.7804 18.434 59.5194 19.028 58.9974 19.514C58.4934 19.982 57.8454 20.216 57.0534 20.216ZM72.3786 16.085V20H70.0296C68.3556 20 67.0506 19.595 66.1146 18.785C65.1786 17.957 64.7106 16.616 64.7106 14.762V8.768H62.8746V4.934H64.7106V1.262H69.3276V4.934H72.3516V8.768H69.3276V14.816C69.3276 15.266 69.4356 15.59 69.6516 15.788C69.8676 15.986 70.2276 16.085 70.7316 16.085H72.3786Z" fill="#117FB6"/>
</svg>
