<svg width="39" height="39" viewBox="0 0 39 39" fill="none" xmlns="http://www.w3.org/2000/svg">
<path d="M29.25 17.875C29.25 16.3166 28.145 15.0134 26.6809 14.6997C27.2659 13.7231 27.625 12.5938 27.625 11.375C27.625 7.79025 24.7097 4.875 21.125 4.875C18.6599 4.875 16.5409 6.26763 15.4375 8.294C14.3341 6.26763 12.2151 4.875 9.75 4.875C6.16525 4.875 3.25 7.79025 3.25 11.375C3.25 12.8408 3.757 14.1814 4.57762 15.2685C4.16746 15.5684 3.83358 15.9606 3.60295 16.4134C3.37233 16.8662 3.25142 17.3669 3.25 17.875V30.875C3.25 32.6674 4.70762 34.125 6.5 34.125H26C27.7924 34.125 29.25 32.6674 29.25 30.875V26.5882L35.75 29.8382V18.4633L29.25 21.7133V17.875ZM21.125 8.125C22.9174 8.125 24.375 9.58262 24.375 11.375C24.375 13.1674 22.9174 14.625 21.125 14.625C19.3326 14.625 17.875 13.1674 17.875 11.375C17.875 9.58262 19.3326 8.125 21.125 8.125ZM9.75 8.125C11.5424 8.125 13 9.58262 13 11.375C13 13.1674 11.5424 14.625 9.75 14.625C7.95762 14.625 6.5 13.1674 6.5 11.375C6.5 9.58262 7.95762 8.125 9.75 8.125ZM6.5 30.875V17.875H26L26.0033 30.875H6.5Z" fill="#2D3B41"/>
</svg>
