<svg width="40" height="40" viewBox="0 0 40 40" fill="none" xmlns="http://www.w3.org/2000/svg">
<path d="M20 36.25C28.9602 36.25 36.25 28.9602 36.25 20C36.25 11.0397 28.9603 3.75 20 3.75C11.0398 3.75 3.75 11.0397 3.75 20C3.75 28.9602 11.0397 36.25 20 36.25ZM20 7C27.1679 7 33 12.8321 33 20C33 27.1679 27.1679 33 20 33C12.8321 33 7 27.1679 7 20C7 12.8321 12.8321 7 20 7Z" fill="#2D3B41"/>
<path d="M29.2734 17.899L26.9757 15.6012L19.9996 22.5774L13.0234 15.6012L10.7257 17.899L19.9996 27.1729L29.2734 17.899Z" fill="#2D3B41"/>
</svg>
