<svg width="39" height="39" viewBox="0 0 39 39" fill="none" xmlns="http://www.w3.org/2000/svg">
<path d="M19.5 3.25C10.5398 3.25 3.25 10.5398 3.25 19.5C3.25 28.4603 10.5398 35.75 19.5 35.75C28.4603 35.75 35.75 28.4603 35.75 19.5C35.75 10.5398 28.4603 3.25 19.5 3.25ZM19.5 6.5C24.7211 6.5 29.2207 9.6005 31.2878 14.053C30.7858 13.8154 30.2999 13.5451 29.8334 13.2437C29.1687 12.8245 28.4148 12.3484 27.4609 11.9892C26.3738 11.5749 25.1859 11.375 23.8306 11.375C22.4754 11.375 21.2875 11.5749 20.2004 11.9876C19.2465 12.35 18.4925 12.8261 17.8084 13.2568C17.1941 13.6419 16.666 13.9766 16.016 14.222C15.2913 14.4966 14.5048 14.625 13.5363 14.625C12.5694 14.625 11.7829 14.4966 11.0598 14.222C10.4098 13.9766 9.87675 13.6403 9.2625 13.2503C9.00087 13.0861 8.71 12.9123 8.4175 12.7416C10.7039 9.00575 14.8086 6.5 19.5 6.5ZM19.5 32.5C12.3321 32.5 6.5 26.6679 6.5 19.5C6.5 18.1838 6.69988 16.9163 7.0655 15.7186C7.21825 15.8129 7.36613 15.8974 7.52537 15.9997C8.19325 16.4222 8.94888 16.9 9.90763 17.2607C10.9948 17.6751 12.181 17.875 13.5363 17.875C14.8899 17.875 16.0777 17.6751 17.1681 17.2624C18.122 16.9 18.876 16.4239 19.5601 15.9932C20.1744 15.6081 20.7025 15.2734 21.3525 15.0264C22.0756 14.7534 22.8621 14.625 23.8306 14.625C24.7991 14.625 25.5856 14.7534 26.3088 15.028C26.9571 15.2718 27.4869 15.6065 28.119 16.0063C28.7836 16.4255 29.5376 16.9016 30.4915 17.2624C31.0814 17.4866 31.707 17.6345 32.3651 17.7352C32.4447 18.3154 32.5 18.9004 32.5 19.5C32.5 26.6679 26.6679 32.5 19.5 32.5Z" fill="#2D3B41"/>
<path d="M13.8125 24.375C15.1587 24.375 16.25 23.2837 16.25 21.9375C16.25 20.5913 15.1587 19.5 13.8125 19.5C12.4663 19.5 11.375 20.5913 11.375 21.9375C11.375 23.2837 12.4663 24.375 13.8125 24.375Z" fill="#2D3B41"/>
<path d="M25.1875 24.375C26.5337 24.375 27.625 23.2837 27.625 21.9375C27.625 20.5913 26.5337 19.5 25.1875 19.5C23.8413 19.5 22.75 20.5913 22.75 21.9375C22.75 23.2837 23.8413 24.375 25.1875 24.375Z" fill="#2D3B41"/>
</svg>
