<svg width="287" height="202" viewBox="0 0 287 202" fill="none" xmlns="http://www.w3.org/2000/svg">
<rect y="34" width="286.873" height="168" rx="10" fill="#EDF5F9"/>
<rect x="20.833" y="84.2677" width="22.437" height="18.5197" rx="2" fill="#F5FCFF"/>
<rect x="20.833" y="110.724" width="22.437" height="18.5197" rx="2" fill="#F5FCFF"/>
<rect x="20.833" y="137.181" width="22.437" height="18.5197" rx="2" fill="#F5FCFF"/>
<rect x="20.833" y="163.638" width="22.437" height="18.5197" rx="2" fill="#F5FCFF"/>
<rect x="52.8867" y="84.2677" width="22.437" height="18.5197" rx="2" fill="#F5FCFF"/>
<rect x="53.3867" y="111.224" width="21.437" height="17.5197" rx="1.5" fill="#F5FCFF" stroke="#FAABAB"/>
<rect x="52.8867" y="137.181" width="22.437" height="18.5197" rx="2" fill="#F5FCFF"/>
<rect x="52.8867" y="163.638" width="22.437" height="18.5197" rx="2" fill="#F5FCFF"/>
<rect x="84.9404" y="84.2677" width="22.437" height="18.5197" rx="2" fill="#F5FCFF"/>
<rect x="84.9404" y="110.724" width="22.437" height="18.5197" rx="2" fill="#F5FCFF"/>
<rect x="84.9404" y="137.181" width="22.437" height="18.5197" rx="2" fill="#F5FCFF"/>
<rect x="84.9404" y="163.638" width="22.437" height="18.5197" rx="2" fill="#F5FCFF"/>
<rect x="116.993" y="84.2677" width="22.437" height="18.5197" rx="2" fill="#F5FCFF"/>
<rect x="116.993" y="110.724" width="22.437" height="18.5197" rx="2" fill="#F5FCFF"/>
<rect x="116.993" y="137.181" width="22.437" height="18.5197" rx="2" fill="#F5FCFF"/>
<rect x="116.993" y="163.638" width="22.437" height="18.5197" rx="2" fill="#F5FCFF"/>
<rect x="149.046" y="84.2677" width="22.437" height="18.5197" rx="2" fill="#F5FCFF"/>
<rect x="149.046" y="110.724" width="22.437" height="18.5197" rx="2" fill="#F5FCFF"/>
<rect x="149.046" y="137.181" width="22.437" height="18.5197" rx="2" fill="#FAABAB"/>
<rect x="149.046" y="163.638" width="22.437" height="18.5197" rx="2" fill="#F5FCFF"/>
<rect x="181.1" y="84.2677" width="22.437" height="18.5197" rx="2" fill="#F5FCFF"/>
<rect x="181.1" y="110.724" width="22.437" height="18.5197" rx="2" fill="#F5FCFF"/>
<rect x="181.1" y="137.181" width="22.437" height="18.5197" rx="2" fill="#F5FCFF"/>
<rect x="181.1" y="163.638" width="22.437" height="18.5197" rx="2" fill="#F5FCFF"/>
<rect x="213.152" y="84.2677" width="22.437" height="18.5197" rx="2" fill="#FAABAB"/>
<rect x="213.152" y="110.724" width="22.437" height="18.5197" rx="2" fill="#F5FCFF"/>
<rect x="213.152" y="137.181" width="22.437" height="18.5197" rx="2" fill="#F5FCFF"/>
<rect x="213.152" y="163.638" width="22.437" height="18.5197" rx="2" fill="#F5FCFF"/>
<rect x="245.205" y="84.2677" width="22.437" height="18.5197" rx="2" fill="#F5FCFF"/>
<rect x="245.205" y="110.724" width="22.437" height="18.5197" rx="2" fill="#F5FCFF"/>
<rect x="245.705" y="137.681" width="21.437" height="17.5197" rx="1.5" fill="#F5FCFF" stroke="#FAABAB"/>
<rect x="245.205" y="163.638" width="22.437" height="18.5197" rx="2" fill="#F5FCFF"/>
<path d="M127.456 64.295H124.112L123.496 66H122.44L125.212 58.377H126.367L129.128 66H128.072L127.456 64.295ZM127.17 63.481L125.784 59.609L124.398 63.481H127.17ZM135.682 59.972V66H134.681V65.109C134.491 65.417 134.223 65.659 133.878 65.835C133.541 66.0037 133.167 66.088 132.756 66.088C132.287 66.088 131.865 65.9927 131.491 65.802C131.117 65.604 130.82 65.3107 130.6 64.922C130.388 64.5333 130.281 64.0603 130.281 63.503V59.972H131.271V63.371C131.271 63.965 131.422 64.4233 131.722 64.746C132.023 65.0613 132.434 65.219 132.954 65.219C133.49 65.219 133.911 65.054 134.219 64.724C134.527 64.394 134.681 63.9137 134.681 63.283V59.972H135.682ZM139.858 59.873C140.379 59.873 140.834 59.9867 141.222 60.214C141.618 60.4413 141.912 60.7273 142.102 61.072V59.972H143.114V66.132C143.114 66.682 142.997 67.1697 142.762 67.595C142.528 68.0277 142.19 68.365 141.75 68.607C141.318 68.849 140.812 68.97 140.232 68.97C139.44 68.97 138.78 68.783 138.252 68.409C137.724 68.035 137.413 67.5253 137.317 66.88H138.307C138.417 67.2467 138.645 67.54 138.989 67.76C139.334 67.9873 139.748 68.101 140.232 68.101C140.782 68.101 141.23 67.9287 141.574 67.584C141.926 67.2393 142.102 66.7553 142.102 66.132V64.867C141.904 65.219 141.611 65.5123 141.222 65.747C140.834 65.9817 140.379 66.099 139.858 66.099C139.323 66.099 138.835 65.967 138.395 65.703C137.963 65.439 137.622 65.0687 137.372 64.592C137.123 64.1153 136.998 63.5727 136.998 62.964C136.998 62.348 137.123 61.809 137.372 61.347C137.622 60.8777 137.963 60.5147 138.395 60.258C138.835 60.0013 139.323 59.873 139.858 59.873ZM142.102 62.975C142.102 62.5203 142.011 62.1243 141.827 61.787C141.644 61.4497 141.395 61.193 141.079 61.017C140.771 60.8337 140.43 60.742 140.056 60.742C139.682 60.742 139.341 60.83 139.033 61.006C138.725 61.182 138.48 61.4387 138.296 61.776C138.113 62.1133 138.021 62.5093 138.021 62.964C138.021 63.426 138.113 63.8293 138.296 64.174C138.48 64.5113 138.725 64.7717 139.033 64.955C139.341 65.131 139.682 65.219 140.056 65.219C140.43 65.219 140.771 65.131 141.079 64.955C141.395 64.7717 141.644 64.5113 141.827 64.174C142.011 63.8293 142.102 63.4297 142.102 62.975ZM150.152 59.972V66H149.151V65.109C148.96 65.417 148.693 65.659 148.348 65.835C148.011 66.0037 147.637 66.088 147.226 66.088C146.757 66.088 146.335 65.9927 145.961 65.802C145.587 65.604 145.29 65.3107 145.07 64.922C144.857 64.5333 144.751 64.0603 144.751 63.503V59.972H145.741V63.371C145.741 63.965 145.891 64.4233 146.192 64.746C146.493 65.0613 146.903 65.219 147.424 65.219C147.959 65.219 148.381 65.054 148.689 64.724C148.997 64.394 149.151 63.9137 149.151 63.283V59.972H150.152ZM153.976 66.099C153.514 66.099 153.1 66.022 152.733 65.868C152.366 65.7067 152.077 65.4867 151.864 65.208C151.651 64.922 151.534 64.5957 151.512 64.229H152.546C152.575 64.5297 152.715 64.7753 152.964 64.966C153.221 65.1567 153.554 65.252 153.965 65.252C154.346 65.252 154.647 65.1677 154.867 64.999C155.087 64.8303 155.197 64.6177 155.197 64.361C155.197 64.097 155.08 63.9027 154.845 63.778C154.61 63.646 154.247 63.5177 153.756 63.393C153.309 63.2757 152.942 63.1583 152.656 63.041C152.377 62.9163 152.135 62.7367 151.93 62.502C151.732 62.26 151.633 61.9447 151.633 61.556C151.633 61.248 151.725 60.9657 151.908 60.709C152.091 60.4523 152.352 60.2507 152.689 60.104C153.026 59.95 153.411 59.873 153.844 59.873C154.511 59.873 155.05 60.0417 155.461 60.379C155.872 60.7163 156.092 61.1783 156.121 61.765H155.12C155.098 61.4497 154.97 61.1967 154.735 61.006C154.508 60.8153 154.2 60.72 153.811 60.72C153.452 60.72 153.166 60.797 152.953 60.951C152.74 61.105 152.634 61.3067 152.634 61.556C152.634 61.754 152.696 61.919 152.821 62.051C152.953 62.1757 153.114 62.2783 153.305 62.359C153.503 62.4323 153.774 62.5167 154.119 62.612C154.552 62.7293 154.904 62.8467 155.175 62.964C155.446 63.074 155.677 63.2427 155.868 63.47C156.066 63.6973 156.169 63.9943 156.176 64.361C156.176 64.691 156.084 64.988 155.901 65.252C155.718 65.516 155.457 65.725 155.12 65.879C154.79 66.0257 154.409 66.099 153.976 66.099ZM158.81 60.797V64.35C158.81 64.6433 158.873 64.8523 158.997 64.977C159.122 65.0943 159.338 65.153 159.646 65.153H160.383V66H159.481C158.924 66 158.506 65.8717 158.227 65.615C157.949 65.3583 157.809 64.9367 157.809 64.35V60.797H157.028V59.972H157.809V58.454H158.81V59.972H160.383V60.797H158.81Z" fill="#2D3B41"/>
<g filter="url(#filter0_d_91_804)">
<rect x="19.2305" y="105.433" width="48.0792" height="11.9055" rx="1" fill="#DEF0F9" shape-rendering="crispEdges"/>
<g clip-path="url(#clip0_91_804)">
<path d="M32.2705 109.302C32.0645 109.302 31.8631 109.364 31.6918 109.478C31.5205 109.593 31.387 109.755 31.3081 109.946C31.2293 110.136 31.2087 110.345 31.2489 110.547C31.289 110.749 31.3883 110.935 31.5339 111.081C31.6796 111.226 31.8652 111.326 32.0673 111.366C32.2694 111.406 32.4788 111.385 32.6691 111.307C32.8595 111.228 33.0222 111.094 33.1366 110.923C33.2511 110.752 33.3122 110.55 33.3122 110.344C33.3122 110.068 33.2024 109.803 33.0071 109.608C32.8117 109.412 32.5468 109.302 32.2705 109.302ZM32.2705 110.969C32.1469 110.969 32.0261 110.933 31.9233 110.864C31.8205 110.795 31.7404 110.698 31.6931 110.583C31.6458 110.469 31.6334 110.343 31.6575 110.222C31.6816 110.101 31.7412 109.99 31.8286 109.902C31.916 109.815 32.0273 109.755 32.1486 109.731C32.2698 109.707 32.3955 109.719 32.5097 109.767C32.6239 109.814 32.7215 109.894 32.7902 109.997C32.8589 110.1 32.8955 110.221 32.8955 110.344C32.8955 110.51 32.8297 110.669 32.7124 110.786C32.5952 110.903 32.4363 110.969 32.2705 110.969ZM34.1455 113.261V113.052C34.1455 112.666 33.9919 112.295 33.7184 112.021C33.4449 111.748 33.0739 111.594 32.6872 111.594H31.8538C31.4671 111.594 31.0961 111.748 30.8226 112.021C30.5492 112.295 30.3955 112.666 30.3955 113.052V113.261H30.8122V113.052C30.8122 112.776 30.9219 112.511 31.1173 112.316C31.3126 112.121 31.5776 112.011 31.8538 112.011H32.6872C32.9634 112.011 33.2284 112.121 33.4237 112.316C33.6191 112.511 33.7288 112.776 33.7288 113.052V113.261H34.1455Z" fill="black"/>
</g>
<path d="M43.2155 112.611H41.6955L41.4155 113.386H40.9355L42.1955 109.921H42.7205L43.9755 113.386H43.4955L43.2155 112.611ZM43.0855 112.241L42.4555 110.481L41.8255 112.241H43.0855ZM44.3546 112.006C44.3546 111.726 44.4113 111.481 44.5246 111.271C44.638 111.058 44.793 110.893 44.9896 110.776C45.1896 110.659 45.413 110.601 45.6596 110.601C45.873 110.601 46.0713 110.651 46.2546 110.751C46.438 110.848 46.578 110.976 46.6746 111.136V109.686H47.1346V113.386H46.6746V112.871C46.5846 113.034 46.4513 113.169 46.2746 113.276C46.098 113.379 45.8913 113.431 45.6546 113.431C45.4113 113.431 45.1896 113.371 44.9896 113.251C44.793 113.131 44.638 112.963 44.5246 112.746C44.4113 112.529 44.3546 112.283 44.3546 112.006ZM46.6746 112.011C46.6746 111.804 46.633 111.624 46.5496 111.471C46.4663 111.318 46.353 111.201 46.2096 111.121C46.0696 111.038 45.9146 110.996 45.7446 110.996C45.5746 110.996 45.4196 111.036 45.2796 111.116C45.1396 111.196 45.028 111.313 44.9446 111.466C44.8613 111.619 44.8196 111.799 44.8196 112.006C44.8196 112.216 44.8613 112.399 44.9446 112.556C45.028 112.709 45.1396 112.828 45.2796 112.911C45.4196 112.991 45.5746 113.031 45.7446 113.031C45.9146 113.031 46.0696 112.991 46.2096 112.911C46.353 112.828 46.4663 112.709 46.5496 112.556C46.633 112.399 46.6746 112.218 46.6746 112.011ZM47.7336 112.006C47.7336 111.726 47.7902 111.481 47.9036 111.271C48.0169 111.058 48.1719 110.893 48.3686 110.776C48.5686 110.659 48.7902 110.601 49.0336 110.601C49.2736 110.601 49.4819 110.653 49.6586 110.756C49.8352 110.859 49.9669 110.989 50.0536 111.146V110.646H50.5136V113.386H50.0536V112.876C49.9636 113.036 49.8286 113.169 49.6486 113.276C49.4719 113.379 49.2652 113.431 49.0286 113.431C48.7852 113.431 48.5652 113.371 48.3686 113.251C48.1719 113.131 48.0169 112.963 47.9036 112.746C47.7902 112.529 47.7336 112.283 47.7336 112.006ZM50.0536 112.011C50.0536 111.804 50.0119 111.624 49.9286 111.471C49.8452 111.318 49.7319 111.201 49.5886 111.121C49.4486 111.038 49.2936 110.996 49.1236 110.996C48.9536 110.996 48.7986 111.036 48.6586 111.116C48.5186 111.196 48.4069 111.313 48.3236 111.466C48.2402 111.619 48.1986 111.799 48.1986 112.006C48.1986 112.216 48.2402 112.399 48.3236 112.556C48.4069 112.709 48.5186 112.828 48.6586 112.911C48.7986 112.991 48.9536 113.031 49.1236 113.031C49.2936 113.031 49.4486 112.991 49.5886 112.911C49.7319 112.828 49.8452 112.709 49.9286 112.556C50.0119 112.399 50.0536 112.218 50.0536 112.011ZM54.5775 110.596C54.7908 110.596 54.9808 110.641 55.1475 110.731C55.3141 110.818 55.4458 110.949 55.5425 111.126C55.6391 111.303 55.6875 111.518 55.6875 111.771V113.386H55.2375V111.836C55.2375 111.563 55.1691 111.354 55.0325 111.211C54.8991 111.064 54.7175 110.991 54.4875 110.991C54.2508 110.991 54.0625 111.068 53.9225 111.221C53.7825 111.371 53.7125 111.589 53.7125 111.876V113.386H53.2625V111.836C53.2625 111.563 53.1941 111.354 53.0575 111.211C52.9241 111.064 52.7425 110.991 52.5125 110.991C52.2758 110.991 52.0875 111.068 51.9475 111.221C51.8075 111.371 51.7375 111.589 51.7375 111.876V113.386H51.2825V110.646H51.7375V111.041C51.8275 110.898 51.9475 110.788 52.0975 110.711C52.2508 110.634 52.4191 110.596 52.6025 110.596C52.8325 110.596 53.0358 110.648 53.2125 110.751C53.3891 110.854 53.5208 111.006 53.6075 111.206C53.6841 111.013 53.8108 110.863 53.9875 110.756C54.1641 110.649 54.3608 110.596 54.5775 110.596Z" fill="#2D3B41"/>
</g>
<g filter="url(#filter1_d_91_804)">
<rect x="208" y="150" width="48.0792" height="11.9055" rx="1" fill="#DEF0F9" shape-rendering="crispEdges"/>
<g clip-path="url(#clip1_91_804)">
<path d="M222.54 153.869C222.334 153.869 222.133 153.93 221.961 154.045C221.79 154.159 221.657 154.322 221.578 154.512C221.499 154.703 221.478 154.912 221.518 155.114C221.559 155.316 221.658 155.502 221.803 155.648C221.949 155.793 222.135 155.893 222.337 155.933C222.539 155.973 222.748 155.952 222.939 155.873C223.129 155.795 223.292 155.661 223.406 155.49C223.521 155.318 223.582 155.117 223.582 154.911C223.582 154.635 223.472 154.37 223.277 154.174C223.081 153.979 222.816 153.869 222.54 153.869ZM222.54 155.536C222.416 155.536 222.296 155.499 222.193 155.431C222.09 155.362 222.01 155.264 221.963 155.15C221.915 155.036 221.903 154.91 221.927 154.789C221.951 154.668 222.011 154.557 222.098 154.469C222.186 154.382 222.297 154.322 222.418 154.298C222.539 154.274 222.665 154.286 222.779 154.334C222.893 154.381 222.991 154.461 223.06 154.564C223.128 154.667 223.165 154.787 223.165 154.911C223.165 155.077 223.099 155.236 222.982 155.353C222.865 155.47 222.706 155.536 222.54 155.536ZM224.415 157.828V157.619C224.415 157.233 224.261 156.862 223.988 156.588C223.714 156.315 223.343 156.161 222.957 156.161H222.123C221.737 156.161 221.366 156.315 221.092 156.588C220.819 156.862 220.665 157.233 220.665 157.619V157.828H221.082V157.619C221.082 157.343 221.191 157.078 221.387 156.883C221.582 156.687 221.847 156.578 222.123 156.578H222.957C223.233 156.578 223.498 156.687 223.693 156.883C223.889 157.078 223.998 157.343 223.998 157.619V157.828H224.415Z" fill="black"/>
</g>
<path d="M233.18 154.468V157.043C233.18 157.329 233.092 157.559 232.915 157.733C232.738 157.903 232.505 157.988 232.215 157.988C231.922 157.988 231.687 157.901 231.51 157.728C231.333 157.551 231.245 157.311 231.245 157.008H231.7C231.703 157.178 231.747 157.316 231.83 157.423C231.917 157.529 232.045 157.583 232.215 157.583C232.385 157.583 232.512 157.533 232.595 157.433C232.678 157.329 232.72 157.199 232.72 157.043V154.468H233.18ZM233.906 156.573C233.906 156.293 233.963 156.048 234.076 155.838C234.19 155.624 234.345 155.459 234.541 155.343C234.741 155.226 234.963 155.168 235.206 155.168C235.446 155.168 235.655 155.219 235.831 155.323C236.008 155.426 236.14 155.556 236.226 155.713V155.213H236.686V157.953H236.226V157.443C236.136 157.603 236.001 157.736 235.821 157.843C235.645 157.946 235.438 157.998 235.201 157.998C234.958 157.998 234.738 157.938 234.541 157.818C234.345 157.698 234.19 157.529 234.076 157.313C233.963 157.096 233.906 156.849 233.906 156.573ZM236.226 156.578C236.226 156.371 236.185 156.191 236.101 156.038C236.018 155.884 235.905 155.768 235.761 155.688C235.621 155.604 235.466 155.563 235.296 155.563C235.126 155.563 234.971 155.603 234.831 155.683C234.691 155.763 234.58 155.879 234.496 156.033C234.413 156.186 234.371 156.366 234.371 156.573C234.371 156.783 234.413 156.966 234.496 157.123C234.58 157.276 234.691 157.394 234.831 157.478C234.971 157.558 235.126 157.598 235.296 157.598C235.466 157.598 235.621 157.558 235.761 157.478C235.905 157.394 236.018 157.276 236.101 157.123C236.185 156.966 236.226 156.784 236.226 156.578ZM238.79 155.163C239.124 155.163 239.394 155.264 239.6 155.468C239.807 155.668 239.91 155.958 239.91 156.338V157.953H239.46V156.403C239.46 156.129 239.392 155.921 239.255 155.778C239.119 155.631 238.932 155.558 238.695 155.558C238.455 155.558 238.264 155.633 238.12 155.783C237.98 155.933 237.91 156.151 237.91 156.438V157.953H237.455V155.213H237.91V155.603C238 155.463 238.122 155.354 238.275 155.278C238.432 155.201 238.604 155.163 238.79 155.163ZM243.154 156.478C243.154 156.564 243.149 156.656 243.139 156.753H240.949C240.965 157.023 241.057 157.234 241.224 157.388C241.394 157.538 241.599 157.613 241.839 157.613C242.035 157.613 242.199 157.568 242.329 157.478C242.462 157.384 242.555 157.261 242.609 157.108H243.099C243.025 157.371 242.879 157.586 242.659 157.753C242.439 157.916 242.165 157.998 241.839 157.998C241.579 157.998 241.345 157.939 241.139 157.823C240.935 157.706 240.775 157.541 240.659 157.328C240.542 157.111 240.484 156.861 240.484 156.578C240.484 156.294 240.54 156.046 240.654 155.833C240.767 155.619 240.925 155.456 241.129 155.343C241.335 155.226 241.572 155.168 241.839 155.168C242.099 155.168 242.329 155.224 242.529 155.338C242.729 155.451 242.882 155.608 242.989 155.808C243.099 156.004 243.154 156.228 243.154 156.478ZM242.684 156.383C242.684 156.209 242.645 156.061 242.569 155.938C242.492 155.811 242.387 155.716 242.254 155.653C242.124 155.586 241.979 155.553 241.819 155.553C241.589 155.553 241.392 155.626 241.229 155.773C241.069 155.919 240.977 156.123 240.954 156.383H242.684Z" fill="#2D3B41"/>
</g>
<g filter="url(#filter2_iiii_91_804)">
<path d="M72.1988 7.69788H34.8008C28.5487 7.69788 23.4805 12.7662 23.4805 19.0182V52.4228C23.4805 58.6749 28.5487 63.7431 34.8008 63.7431H72.1988C78.4508 63.7431 83.5191 58.6749 83.5191 52.4228V19.0182C83.5191 12.7662 78.4508 7.69788 72.1988 7.69788Z" fill="url(#paint0_linear_91_804)"/>
</g>
<path d="M83.5191 22.3884H23.4805V18.6948C23.4805 15.7782 24.6391 12.9811 26.7014 10.9188C28.7637 8.85647 31.5608 7.69788 34.4773 7.69788H72.5222C75.4388 7.69788 78.2359 8.85647 80.2982 10.9188C82.3605 12.9811 83.5191 15.7782 83.5191 18.6948V22.3884Z" fill="url(#paint1_linear_91_804)"/>
<path d="M83.5191 22.3884H23.4805V18.6948C23.4805 15.7782 24.6391 12.9811 26.7014 10.9188C28.7637 8.85647 31.5608 7.69788 34.4773 7.69788H72.5222C75.4388 7.69788 78.2359 8.85647 80.2982 10.9188C82.3605 12.9811 83.5191 15.7782 83.5191 18.6948V22.3884Z" fill="url(#paint2_linear_91_804)"/>
<path d="M83.5191 22.3884H23.4805V18.6948C23.4805 15.7782 24.6391 12.9811 26.7014 10.9188C28.7637 8.85647 31.5608 7.69788 34.4773 7.69788H72.5222C75.4388 7.69788 78.2359 8.85647 80.2982 10.9188C82.3605 12.9811 83.5191 15.7782 83.5191 18.6948V22.3884Z" fill="url(#paint3_radial_91_804)"/>
<path d="M83.5191 22.3884H23.4805V18.6948C23.4805 15.7782 24.6391 12.9811 26.7014 10.9188C28.7637 8.85647 31.5608 7.69788 34.4773 7.69788H72.5222C75.4388 7.69788 78.2359 8.85647 80.2982 10.9188C82.3605 12.9811 83.5191 15.7782 83.5191 18.6948V22.3884Z" fill="url(#paint4_linear_91_804)"/>
<g filter="url(#filter3_ii_91_804)">
<path d="M83.5189 43.5455V52.7484C83.5189 55.665 82.3603 58.4621 80.298 60.5244C78.2357 62.5867 75.4386 63.7453 72.5221 63.7453H63.1963L83.5189 43.5455Z" fill="#D3CBDD"/>
</g>
<g filter="url(#filter4_iii_91_804)">
<path d="M43.2965 28.4518H37.6795C37.5604 28.4518 37.4639 28.5483 37.4639 28.6674V34.2844C37.4639 34.4035 37.5604 34.5001 37.6795 34.5001H43.2965C43.4156 34.5001 43.5121 34.4035 43.5121 34.2844V28.6674C43.5121 28.5483 43.4156 28.4518 43.2965 28.4518Z" fill="#9896A1"/>
</g>
<g filter="url(#filter5_iii_91_804)">
<path d="M56.2077 28.4518H50.5906C50.4715 28.4518 50.375 28.5483 50.375 28.6674V34.2844C50.375 34.4035 50.4715 34.5001 50.5906 34.5001H56.2077C56.3267 34.5001 56.4233 34.4035 56.4233 34.2844V28.6674C56.4233 28.5483 56.3267 28.4518 56.2077 28.4518Z" fill="#9896A1"/>
</g>
<g filter="url(#filter6_iii_91_804)">
<path d="M69.1198 28.4518H63.5027C63.3836 28.4518 63.2871 28.5483 63.2871 28.6674V34.2844C63.2871 34.4035 63.3836 34.5001 63.5027 34.5001H69.1198C69.2389 34.5001 69.3354 34.4035 69.3354 34.2844V28.6674C69.3354 28.5483 69.2389 28.4518 69.1198 28.4518Z" fill="#9896A1"/>
</g>
<g filter="url(#filter7_iii_91_804)">
<path d="M43.2965 39.233H37.6795C37.5604 39.233 37.4639 39.3296 37.4639 39.4487V45.0657C37.4639 45.1848 37.5604 45.2813 37.6795 45.2813H43.2965C43.4156 45.2813 43.5121 45.1848 43.5121 45.0657V39.4487C43.5121 39.3296 43.4156 39.233 43.2965 39.233Z" fill="#9896A1"/>
</g>
<g filter="url(#filter8_iii_91_804)">
<path d="M43.2965 50.0143H37.6795C37.5604 50.0143 37.4639 50.1108 37.4639 50.2299V55.8469C37.4639 55.966 37.5604 56.0626 37.6795 56.0626H43.2965C43.4156 56.0626 43.5121 55.966 43.5121 55.8469V50.2299C43.5121 50.1108 43.4156 50.0143 43.2965 50.0143Z" fill="#9896A1"/>
</g>
<g filter="url(#filter9_iii_91_804)">
<path d="M56.2077 39.233H50.5906C50.4715 39.233 50.375 39.3296 50.375 39.4487V45.0657C50.375 45.1848 50.4715 45.2813 50.5906 45.2813H56.2077C56.3267 45.2813 56.4233 45.1848 56.4233 45.0657V39.4487C56.4233 39.3296 56.3267 39.233 56.2077 39.233Z" fill="#9896A1"/>
</g>
<g filter="url(#filter10_iii_91_804)">
<path d="M56.2077 50.0143H50.5906C50.4715 50.0143 50.375 50.1108 50.375 50.2299V55.8469C50.375 55.966 50.4715 56.0626 50.5906 56.0626H56.2077C56.3267 56.0626 56.4233 55.966 56.4233 55.8469V50.2299C56.4233 50.1108 56.3267 50.0143 56.2077 50.0143Z" fill="#9896A1"/>
</g>
<g filter="url(#filter11_iii_91_804)">
<path d="M69.1198 39.233H63.5027C63.3836 39.233 63.2871 39.3296 63.2871 39.4487V45.0657C63.2871 45.1848 63.3836 45.2813 63.5027 45.2813H69.1198C69.2389 45.2813 69.3354 45.1848 69.3354 45.0657V39.4487C69.3354 39.3296 69.2389 39.233 69.1198 39.233Z" fill="url(#paint5_linear_91_804)"/>
</g>
<g filter="url(#filter12_iii_91_804)">
<path d="M69.1198 50.0143H63.5027C63.3836 50.0143 63.2871 50.1108 63.2871 50.2299V55.8469C63.2871 55.966 63.3836 56.0626 63.5027 56.0626H69.1198C69.2389 56.0626 69.3354 55.966 69.3354 55.8469V50.2299C69.3354 50.1108 69.2389 50.0143 69.1198 50.0143Z" fill="#9896A1"/>
</g>
<g filter="url(#filter13_i_91_804)">
<path d="M83.3142 43.9272C83.412 43.8299 83.4788 43.7058 83.5059 43.5705C83.5331 43.4353 83.5195 43.295 83.4668 43.1675C83.4141 43.04 83.3248 42.931 83.2101 42.8544C83.0954 42.7777 82.9606 42.7368 82.8226 42.7369H80.2998C75.5819 42.7369 71.0571 44.6111 67.721 47.9472C64.3849 51.2833 62.5107 55.808 62.5107 60.526V63.0488C62.5107 63.1868 62.5515 63.3216 62.6282 63.4363C62.7048 63.551 62.8138 63.6403 62.9413 63.693C63.0688 63.7457 63.2091 63.7593 63.3443 63.7321C63.4796 63.7049 63.6037 63.6382 63.701 63.5404L83.3142 43.9272Z" fill="url(#paint6_radial_91_804)"/>
<path d="M83.3142 43.9272C83.412 43.8299 83.4788 43.7058 83.5059 43.5705C83.5331 43.4353 83.5195 43.295 83.4668 43.1675C83.4141 43.04 83.3248 42.931 83.2101 42.8544C83.0954 42.7777 82.9606 42.7368 82.8226 42.7369H80.2998C75.5819 42.7369 71.0571 44.6111 67.721 47.9472C64.3849 51.2833 62.5107 55.808 62.5107 60.526V63.0488C62.5107 63.1868 62.5515 63.3216 62.6282 63.4363C62.7048 63.551 62.8138 63.6403 62.9413 63.693C63.0688 63.7457 63.2091 63.7593 63.3443 63.7321C63.4796 63.7049 63.6037 63.6382 63.701 63.5404L83.3142 43.9272Z" fill="url(#paint7_linear_91_804)"/>
</g>
<g filter="url(#filter14_f_91_804)">
<path d="M81.3286 21.2628C81.3286 15.0097 78.6333 9.9425 70.0083 9.9425H48.1094" stroke="url(#paint8_radial_91_804)" stroke-width="1.5"/>
</g>
<g filter="url(#filter15_f_91_804)">
<path d="M62.9741 7.69788C62.6678 8.51861 62.5115 9.38776 62.5127 10.2638C62.5127 13.675 64.8544 16.5601 68.0974 17.2113C68.49 17.2899 68.8977 17.2093 69.2309 16.9873C69.5641 16.7653 69.7955 16.4201 69.8741 16.0275C69.9528 15.6349 69.8722 15.2271 69.6502 14.8939C69.4282 14.5607 69.0829 14.3294 68.6904 14.2507C66.8964 13.8906 65.5315 12.2756 65.5315 10.2617C65.5315 9.26978 65.8549 8.38572 66.3789 7.69788H62.972H62.9741Z" fill="#3E7BC6"/>
</g>
<g filter="url(#filter16_f_91_804)">
<path d="M50.8364 7.69788C50.5301 8.51861 50.3738 9.38776 50.375 10.2638C50.375 13.675 52.7167 16.5601 55.9597 17.2113C56.3523 17.2899 56.76 17.2093 57.0932 16.9873C57.4264 16.7653 57.6578 16.4201 57.7364 16.0275C57.8151 15.6349 57.7345 15.2271 57.5125 14.8939C57.2905 14.5607 56.9453 14.3294 56.5527 14.2507C54.7587 13.8906 53.3938 12.2756 53.3938 10.2617C53.3938 9.26978 53.7172 8.38572 54.2412 7.69788H50.8364Z" fill="#3E7BC6"/>
</g>
<g filter="url(#filter17_f_91_804)">
<path d="M39.7085 7.69788C39.4031 8.51889 39.2469 9.38785 39.2471 10.2638C39.2471 13.675 41.5888 16.5601 44.8318 17.2113C45.0261 17.2502 45.2263 17.2505 45.4208 17.212C45.6153 17.1736 45.8003 17.0973 45.9653 16.9873C46.1303 16.8774 46.272 16.7361 46.3824 16.5714C46.4927 16.4067 46.5696 16.2219 46.6085 16.0275C46.6474 15.8331 46.6477 15.6329 46.6093 15.4384C46.5709 15.2439 46.4945 15.0589 46.3846 14.8939C46.2747 14.7289 46.1333 14.5872 45.9686 14.4769C45.8039 14.3665 45.6191 14.2897 45.4247 14.2507C43.6307 13.8906 42.2658 12.2756 42.2658 10.2617C42.2658 9.26978 42.5893 8.38572 43.1132 7.69788H39.7085Z" fill="#3E7BC6"/>
</g>
<g filter="url(#filter18_f_91_804)">
<path d="M31.2687 9.12747C30.969 9.92528 28.8105 9.8455 28.8105 10.7447C28.8105 14.1558 31.0962 16.5601 34.337 17.2113C34.5314 17.2503 34.7316 17.2507 34.9261 17.2124C35.1207 17.1742 35.3058 17.0979 35.4709 16.9881C35.636 16.8783 35.7778 16.737 35.8883 16.5724C35.9988 16.4077 36.0758 16.2229 36.1148 16.0285C36.1539 15.8342 36.1543 15.634 36.116 15.4394C36.0777 15.2449 36.0015 15.0598 35.8917 14.8947C35.7819 14.7296 35.6406 14.5878 35.476 14.4773C35.3113 14.3668 35.1265 14.2898 34.9321 14.2507C33.1381 13.8906 31.7711 12.2756 31.7711 10.2617C31.7711 9.26978 32.0945 8.38572 32.6185 7.69788L31.2687 9.12747Z" fill="#324DAF"/>
</g>
<path d="M32.718 9.76354C32.718 7.44988 34.4753 5.71626 36.4698 5.71626C37.8024 5.71626 39.0315 6.49251 39.6978 7.70001H42.9429C42.1041 4.84082 39.5705 2.69751 36.4698 2.69751C32.6533 2.69751 29.6992 5.94051 29.6992 9.76354C29.6992 13.1769 32.0409 16.0619 35.2839 16.7131C35.4783 16.7521 35.6785 16.7523 35.8729 16.7139C36.0674 16.6755 36.2525 16.5991 36.4175 16.4892C36.5824 16.3793 36.7242 16.238 36.8345 16.0733C36.9449 15.9086 37.0217 15.7237 37.0607 15.5294C37.0996 15.335 37.0999 15.1348 37.0614 14.9403C37.023 14.7458 36.9467 14.5608 36.8367 14.3958C36.7268 14.2308 36.5855 14.0891 36.4208 13.9787C36.2561 13.8684 36.0713 13.7915 35.8769 13.7526C34.0829 13.3925 32.718 11.7775 32.718 9.76354Z" fill="url(#paint9_radial_91_804)"/>
<path d="M32.718 9.76354C32.718 7.44988 34.4753 5.71626 36.4698 5.71626C37.8024 5.71626 39.0315 6.49251 39.6978 7.70001H42.9429C42.1041 4.84082 39.5705 2.69751 36.4698 2.69751C32.6533 2.69751 29.6992 5.94051 29.6992 9.76354C29.6992 13.1769 32.0409 16.0619 35.2839 16.7131C35.4783 16.7521 35.6785 16.7523 35.8729 16.7139C36.0674 16.6755 36.2525 16.5991 36.4175 16.4892C36.5824 16.3793 36.7242 16.238 36.8345 16.0733C36.9449 15.9086 37.0217 15.7237 37.0607 15.5294C37.0996 15.335 37.0999 15.1348 37.0614 14.9403C37.023 14.7458 36.9467 14.5608 36.8367 14.3958C36.7268 14.2308 36.5855 14.0891 36.4208 13.9787C36.2561 13.8684 36.0713 13.7915 35.8769 13.7526C34.0829 13.3925 32.718 11.7775 32.718 9.76354Z" fill="url(#paint10_radial_91_804)"/>
<g filter="url(#filter19_f_91_804)">
<path d="M35.952 14.7617C33.4335 14.2528 31.5791 12.006 31.5791 9.29347C31.5791 6.22297 33.9337 3.73682 36.8404 3.73682C38.3713 3.73682 39.747 4.42682 40.7087 5.52866" stroke="#D8D7DE" stroke-width="0.4" stroke-linecap="round"/>
</g>
<path d="M43.9563 9.76354C43.9563 7.44988 45.7136 5.71626 47.7081 5.71626C49.0428 5.71626 50.2698 6.49251 50.936 7.70001H54.1812C53.3424 4.84082 50.811 2.69751 47.7081 2.69751C43.8916 2.69751 40.9375 5.94051 40.9375 9.76354C40.9375 13.1769 43.2792 16.0619 46.5222 16.7131C46.7166 16.7522 46.9168 16.7526 47.1113 16.7143C47.3059 16.676 47.491 16.5998 47.656 16.49C47.8211 16.3802 47.963 16.2389 48.0735 16.0743C48.184 15.9096 48.2609 15.7248 48.3 15.5304C48.3391 15.336 48.3395 15.1359 48.3012 14.9413C48.2629 14.7468 48.1867 14.5617 48.0769 14.3966C47.967 14.2315 47.8258 14.0896 47.6611 13.9792C47.4965 13.8687 47.3117 13.7917 47.1173 13.7526C45.3233 13.3925 43.9563 11.7775 43.9563 9.76354Z" fill="url(#paint11_radial_91_804)"/>
<path d="M43.9563 9.76354C43.9563 7.44988 45.7136 5.71626 47.7081 5.71626C49.0428 5.71626 50.2698 6.49251 50.936 7.70001H54.1812C53.3424 4.84082 50.811 2.69751 47.7081 2.69751C43.8916 2.69751 40.9375 5.94051 40.9375 9.76354C40.9375 13.1769 43.2792 16.0619 46.5222 16.7131C46.7166 16.7522 46.9168 16.7526 47.1113 16.7143C47.3059 16.676 47.491 16.5998 47.656 16.49C47.8211 16.3802 47.963 16.2389 48.0735 16.0743C48.184 15.9096 48.2609 15.7248 48.3 15.5304C48.3391 15.336 48.3395 15.1359 48.3012 14.9413C48.2629 14.7468 48.1867 14.5617 48.0769 14.3966C47.967 14.2315 47.8258 14.0896 47.6611 13.9792C47.4965 13.8687 47.3117 13.7917 47.1173 13.7526C45.3233 13.3925 43.9563 11.7775 43.9563 9.76354Z" fill="url(#paint12_radial_91_804)"/>
<path d="M55.2766 9.76354C55.2766 7.44988 57.0339 5.71626 59.0284 5.71626C60.3632 5.71626 61.5901 6.49251 62.2563 7.70001H65.5015C64.6627 4.84082 62.1313 2.69751 59.0284 2.69751C55.2119 2.69751 52.2578 5.94051 52.2578 9.76354C52.2578 13.1769 54.5995 16.0619 57.8425 16.7131C58.0369 16.7522 58.2371 16.7526 58.4316 16.7143C58.6262 16.676 58.8113 16.5998 58.9764 16.49C59.1414 16.3802 59.2833 16.2389 59.3938 16.0743C59.5043 15.9096 59.5813 15.7248 59.6203 15.5304C59.6594 15.336 59.6598 15.1359 59.6215 14.9413C59.5832 14.7468 59.507 14.5617 59.3972 14.3966C59.2874 14.2315 59.1461 14.0896 58.9814 13.9792C58.8168 13.8687 58.632 13.7917 58.4376 13.7526C56.6436 13.3925 55.2766 11.7775 55.2766 9.76354Z" fill="url(#paint13_radial_91_804)"/>
<path d="M55.2766 9.76354C55.2766 7.44988 57.0339 5.71626 59.0284 5.71626C60.3632 5.71626 61.5901 6.49251 62.2563 7.70001H65.5015C64.6627 4.84082 62.1313 2.69751 59.0284 2.69751C55.2119 2.69751 52.2578 5.94051 52.2578 9.76354C52.2578 13.1769 54.5995 16.0619 57.8425 16.7131C58.0369 16.7522 58.2371 16.7526 58.4316 16.7143C58.6262 16.676 58.8113 16.5998 58.9764 16.49C59.1414 16.3802 59.2833 16.2389 59.3938 16.0743C59.5043 15.9096 59.5813 15.7248 59.6203 15.5304C59.6594 15.336 59.6598 15.1359 59.6215 14.9413C59.5832 14.7468 59.507 14.5617 59.3972 14.3966C59.2874 14.2315 59.1461 14.0896 58.9814 13.9792C58.8168 13.8687 58.632 13.7917 58.4376 13.7526C56.6436 13.3925 55.2766 11.7775 55.2766 9.76354Z" fill="url(#paint14_radial_91_804)"/>
<g filter="url(#filter20_f_91_804)">
<path d="M47.1903 14.7617C44.6718 14.255 42.8174 12.006 42.8174 9.29347C42.8174 6.22297 45.172 3.73682 48.0786 3.73682C49.6096 3.73682 50.9874 4.42682 51.9491 5.52866" stroke="#D8D7DE" stroke-width="0.4" stroke-linecap="round"/>
</g>
<g filter="url(#filter21_f_91_804)">
<path d="M58.5106 14.7617C55.9921 14.255 54.1377 12.006 54.1377 9.29347C54.1377 6.22297 56.4923 3.73682 59.3989 3.73682C60.9299 3.73682 62.3077 4.42682 63.2694 5.52866" stroke="#D8D7DE" stroke-width="0.4" stroke-linecap="round"/>
</g>
<path d="M66.5773 9.76354C66.5773 7.44988 68.3347 5.71626 70.3292 5.71626C71.6812 5.71626 72.9253 6.51407 73.5852 7.7496C74.7697 7.86281 75.9277 8.16871 77.0136 8.65523C76.509 5.3346 73.7684 2.69751 70.3292 2.69751C66.5127 2.69751 63.5586 5.94051 63.5586 9.76354C63.5586 13.1769 65.9003 16.0619 69.1433 16.7131C69.5359 16.7921 69.9437 16.7118 70.2771 16.49C70.6105 16.2682 70.8422 15.923 70.9211 15.5304C71 15.1378 70.9198 14.73 70.698 14.3966C70.4762 14.0632 70.131 13.8315 69.7384 13.7526C67.9444 13.3925 66.5773 11.7775 66.5773 9.76354Z" fill="url(#paint15_radial_91_804)"/>
<path d="M66.5773 9.76354C66.5773 7.44988 68.3347 5.71626 70.3292 5.71626C71.6812 5.71626 72.9253 6.51407 73.5852 7.7496C74.7697 7.86281 75.9277 8.16871 77.0136 8.65523C76.509 5.3346 73.7684 2.69751 70.3292 2.69751C66.5127 2.69751 63.5586 5.94051 63.5586 9.76354C63.5586 13.1769 65.9003 16.0619 69.1433 16.7131C69.5359 16.7921 69.9437 16.7118 70.2771 16.49C70.6105 16.2682 70.8422 15.923 70.9211 15.5304C71 15.1378 70.9198 14.73 70.698 14.3966C70.4762 14.0632 70.131 13.8315 69.7384 13.7526C67.9444 13.3925 66.5773 11.7775 66.5773 9.76354Z" fill="url(#paint16_radial_91_804)"/>
<g filter="url(#filter22_f_91_804)">
<path d="M69.8114 14.7617C67.2929 14.255 65.4385 12.006 65.4385 9.29347C65.4385 6.22297 67.7931 3.73682 70.6997 3.73682C72.2307 3.73682 73.6085 4.42682 74.568 5.52866" stroke="#D8D7DE" stroke-width="0.4" stroke-linecap="round"/>
</g>
<defs>
<filter id="filter0_d_91_804" x="7.23047" y="97.4331" width="72.0791" height="35.9055" filterUnits="userSpaceOnUse" color-interpolation-filters="sRGB">
<feFlood flood-opacity="0" result="BackgroundImageFix"/>
<feColorMatrix in="SourceAlpha" type="matrix" values="0 0 0 0 0 0 0 0 0 0 0 0 0 0 0 0 0 0 127 0" result="hardAlpha"/>
<feMorphology radius="2" operator="dilate" in="SourceAlpha" result="effect1_dropShadow_91_804"/>
<feOffset dy="4"/>
<feGaussianBlur stdDeviation="5"/>
<feComposite in2="hardAlpha" operator="out"/>
<feColorMatrix type="matrix" values="0 0 0 0 0 0 0 0 0 0 0 0 0 0 0 0 0 0 0.02 0"/>
<feBlend mode="normal" in2="BackgroundImageFix" result="effect1_dropShadow_91_804"/>
<feBlend mode="normal" in="SourceGraphic" in2="effect1_dropShadow_91_804" result="shape"/>
</filter>
<filter id="filter1_d_91_804" x="196" y="142" width="72.0791" height="35.9055" filterUnits="userSpaceOnUse" color-interpolation-filters="sRGB">
<feFlood flood-opacity="0" result="BackgroundImageFix"/>
<feColorMatrix in="SourceAlpha" type="matrix" values="0 0 0 0 0 0 0 0 0 0 0 0 0 0 0 0 0 0 127 0" result="hardAlpha"/>
<feMorphology radius="2" operator="dilate" in="SourceAlpha" result="effect1_dropShadow_91_804"/>
<feOffset dy="4"/>
<feGaussianBlur stdDeviation="5"/>
<feComposite in2="hardAlpha" operator="out"/>
<feColorMatrix type="matrix" values="0 0 0 0 0 0 0 0 0 0 0 0 0 0 0 0 0 0 0.02 0"/>
<feBlend mode="normal" in2="BackgroundImageFix" result="effect1_dropShadow_91_804"/>
<feBlend mode="normal" in="SourceGraphic" in2="effect1_dropShadow_91_804" result="shape"/>
</filter>
<filter id="filter2_iiii_91_804" x="22.4805" y="6.69788" width="62.0391" height="57.0453" filterUnits="userSpaceOnUse" color-interpolation-filters="sRGB">
<feFlood flood-opacity="0" result="BackgroundImageFix"/>
<feBlend mode="normal" in="SourceGraphic" in2="BackgroundImageFix" result="shape"/>
<feColorMatrix in="SourceAlpha" type="matrix" values="0 0 0 0 0 0 0 0 0 0 0 0 0 0 0 0 0 0 127 0" result="hardAlpha"/>
<feOffset dy="-1"/>
<feGaussianBlur stdDeviation="1.5"/>
<feComposite in2="hardAlpha" operator="arithmetic" k2="-1" k3="1"/>
<feColorMatrix type="matrix" values="0 0 0 0 0.67451 0 0 0 0 0.619608 0 0 0 0 0.74902 0 0 0 1 0"/>
<feBlend mode="normal" in2="shape" result="effect1_innerShadow_91_804"/>
<feColorMatrix in="SourceAlpha" type="matrix" values="0 0 0 0 0 0 0 0 0 0 0 0 0 0 0 0 0 0 127 0" result="hardAlpha"/>
<feOffset dx="1"/>
<feGaussianBlur stdDeviation="0.75"/>
<feComposite in2="hardAlpha" operator="arithmetic" k2="-1" k3="1"/>
<feColorMatrix type="matrix" values="0 0 0 0 0.8 0 0 0 0 0.788235 0 0 0 0 0.819608 0 0 0 1 0"/>
<feBlend mode="normal" in2="effect1_innerShadow_91_804" result="effect2_innerShadow_91_804"/>
<feColorMatrix in="SourceAlpha" type="matrix" values="0 0 0 0 0 0 0 0 0 0 0 0 0 0 0 0 0 0 127 0" result="hardAlpha"/>
<feOffset dx="-1"/>
<feGaussianBlur stdDeviation="0.75"/>
<feComposite in2="hardAlpha" operator="arithmetic" k2="-1" k3="1"/>
<feColorMatrix type="matrix" values="0 0 0 0 0.956863 0 0 0 0 0.945098 0 0 0 0 0.976471 0 0 0 1 0"/>
<feBlend mode="normal" in2="effect2_innerShadow_91_804" result="effect3_innerShadow_91_804"/>
<feColorMatrix in="SourceAlpha" type="matrix" values="0 0 0 0 0 0 0 0 0 0 0 0 0 0 0 0 0 0 127 0" result="hardAlpha"/>
<feOffset dx="0.25" dy="-0.25"/>
<feGaussianBlur stdDeviation="0.5"/>
<feComposite in2="hardAlpha" operator="arithmetic" k2="-1" k3="1"/>
<feColorMatrix type="matrix" values="0 0 0 0 0.670588 0 0 0 0 0.619608 0 0 0 0 0.745098 0 0 0 1 0"/>
<feBlend mode="normal" in2="effect3_innerShadow_91_804" result="effect4_innerShadow_91_804"/>
</filter>
<filter id="filter3_ii_91_804" x="62.1963" y="42.9455" width="21.7223" height="20.7997" filterUnits="userSpaceOnUse" color-interpolation-filters="sRGB">
<feFlood flood-opacity="0" result="BackgroundImageFix"/>
<feBlend mode="normal" in="SourceGraphic" in2="BackgroundImageFix" result="shape"/>
<feColorMatrix in="SourceAlpha" type="matrix" values="0 0 0 0 0 0 0 0 0 0 0 0 0 0 0 0 0 0 127 0" result="hardAlpha"/>
<feOffset dx="-1"/>
<feGaussianBlur stdDeviation="0.75"/>
<feComposite in2="hardAlpha" operator="arithmetic" k2="-1" k3="1"/>
<feColorMatrix type="matrix" values="0 0 0 0 0.937255 0 0 0 0 0.917647 0 0 0 0 0.964706 0 0 0 1 0"/>
<feBlend mode="normal" in2="shape" result="effect1_innerShadow_91_804"/>
<feColorMatrix in="SourceAlpha" type="matrix" values="0 0 0 0 0 0 0 0 0 0 0 0 0 0 0 0 0 0 127 0" result="hardAlpha"/>
<feOffset dx="0.4" dy="-0.6"/>
<feGaussianBlur stdDeviation="0.75"/>
<feComposite in2="hardAlpha" operator="arithmetic" k2="-1" k3="1"/>
<feColorMatrix type="matrix" values="0 0 0 0 0.658824 0 0 0 0 0.607843 0 0 0 0 0.729412 0 0 0 1 0"/>
<feBlend mode="normal" in2="effect1_innerShadow_91_804" result="effect2_innerShadow_91_804"/>
</filter>
<filter id="filter4_iii_91_804" x="37.3639" y="28.3518" width="6.24785" height="6.24834" filterUnits="userSpaceOnUse" color-interpolation-filters="sRGB">
<feFlood flood-opacity="0" result="BackgroundImageFix"/>
<feBlend mode="normal" in="SourceGraphic" in2="BackgroundImageFix" result="shape"/>
<feColorMatrix in="SourceAlpha" type="matrix" values="0 0 0 0 0 0 0 0 0 0 0 0 0 0 0 0 0 0 127 0" result="hardAlpha"/>
<feOffset dx="-0.1" dy="0.1"/>
<feGaussianBlur stdDeviation="0.15"/>
<feComposite in2="hardAlpha" operator="arithmetic" k2="-1" k3="1"/>
<feColorMatrix type="matrix" values="0 0 0 0 0.772549 0 0 0 0 0.752941 0 0 0 0 0.803922 0 0 0 1 0"/>
<feBlend mode="normal" in2="shape" result="effect1_innerShadow_91_804"/>
<feColorMatrix in="SourceAlpha" type="matrix" values="0 0 0 0 0 0 0 0 0 0 0 0 0 0 0 0 0 0 127 0" result="hardAlpha"/>
<feOffset dx="-0.1" dy="0.1"/>
<feGaussianBlur stdDeviation="0.075"/>
<feComposite in2="hardAlpha" operator="arithmetic" k2="-1" k3="1"/>
<feColorMatrix type="matrix" values="0 0 0 0 0.654902 0 0 0 0 0.647059 0 0 0 0 0.682353 0 0 0 1 0"/>
<feBlend mode="normal" in2="effect1_innerShadow_91_804" result="effect2_innerShadow_91_804"/>
<feColorMatrix in="SourceAlpha" type="matrix" values="0 0 0 0 0 0 0 0 0 0 0 0 0 0 0 0 0 0 127 0" result="hardAlpha"/>
<feOffset dx="0.1" dy="-0.1"/>
<feGaussianBlur stdDeviation="0.075"/>
<feComposite in2="hardAlpha" operator="arithmetic" k2="-1" k3="1"/>
<feColorMatrix type="matrix" values="0 0 0 0 0.572549 0 0 0 0 0.564706 0 0 0 0 0.607843 0 0 0 1 0"/>
<feBlend mode="normal" in2="effect2_innerShadow_91_804" result="effect3_innerShadow_91_804"/>
</filter>
<filter id="filter5_iii_91_804" x="50.275" y="28.3518" width="6.24785" height="6.24834" filterUnits="userSpaceOnUse" color-interpolation-filters="sRGB">
<feFlood flood-opacity="0" result="BackgroundImageFix"/>
<feBlend mode="normal" in="SourceGraphic" in2="BackgroundImageFix" result="shape"/>
<feColorMatrix in="SourceAlpha" type="matrix" values="0 0 0 0 0 0 0 0 0 0 0 0 0 0 0 0 0 0 127 0" result="hardAlpha"/>
<feOffset dx="-0.1" dy="0.1"/>
<feGaussianBlur stdDeviation="0.15"/>
<feComposite in2="hardAlpha" operator="arithmetic" k2="-1" k3="1"/>
<feColorMatrix type="matrix" values="0 0 0 0 0.772549 0 0 0 0 0.752941 0 0 0 0 0.803922 0 0 0 1 0"/>
<feBlend mode="normal" in2="shape" result="effect1_innerShadow_91_804"/>
<feColorMatrix in="SourceAlpha" type="matrix" values="0 0 0 0 0 0 0 0 0 0 0 0 0 0 0 0 0 0 127 0" result="hardAlpha"/>
<feOffset dx="-0.1" dy="0.1"/>
<feGaussianBlur stdDeviation="0.075"/>
<feComposite in2="hardAlpha" operator="arithmetic" k2="-1" k3="1"/>
<feColorMatrix type="matrix" values="0 0 0 0 0.654902 0 0 0 0 0.647059 0 0 0 0 0.682353 0 0 0 1 0"/>
<feBlend mode="normal" in2="effect1_innerShadow_91_804" result="effect2_innerShadow_91_804"/>
<feColorMatrix in="SourceAlpha" type="matrix" values="0 0 0 0 0 0 0 0 0 0 0 0 0 0 0 0 0 0 127 0" result="hardAlpha"/>
<feOffset dx="0.1" dy="-0.1"/>
<feGaussianBlur stdDeviation="0.075"/>
<feComposite in2="hardAlpha" operator="arithmetic" k2="-1" k3="1"/>
<feColorMatrix type="matrix" values="0 0 0 0 0.572549 0 0 0 0 0.564706 0 0 0 0 0.607843 0 0 0 1 0"/>
<feBlend mode="normal" in2="effect2_innerShadow_91_804" result="effect3_innerShadow_91_804"/>
</filter>
<filter id="filter6_iii_91_804" x="63.1871" y="28.3518" width="6.24785" height="6.24834" filterUnits="userSpaceOnUse" color-interpolation-filters="sRGB">
<feFlood flood-opacity="0" result="BackgroundImageFix"/>
<feBlend mode="normal" in="SourceGraphic" in2="BackgroundImageFix" result="shape"/>
<feColorMatrix in="SourceAlpha" type="matrix" values="0 0 0 0 0 0 0 0 0 0 0 0 0 0 0 0 0 0 127 0" result="hardAlpha"/>
<feOffset dx="-0.1" dy="0.1"/>
<feGaussianBlur stdDeviation="0.15"/>
<feComposite in2="hardAlpha" operator="arithmetic" k2="-1" k3="1"/>
<feColorMatrix type="matrix" values="0 0 0 0 0.772549 0 0 0 0 0.752941 0 0 0 0 0.803922 0 0 0 1 0"/>
<feBlend mode="normal" in2="shape" result="effect1_innerShadow_91_804"/>
<feColorMatrix in="SourceAlpha" type="matrix" values="0 0 0 0 0 0 0 0 0 0 0 0 0 0 0 0 0 0 127 0" result="hardAlpha"/>
<feOffset dx="-0.1" dy="0.1"/>
<feGaussianBlur stdDeviation="0.075"/>
<feComposite in2="hardAlpha" operator="arithmetic" k2="-1" k3="1"/>
<feColorMatrix type="matrix" values="0 0 0 0 0.654902 0 0 0 0 0.647059 0 0 0 0 0.682353 0 0 0 1 0"/>
<feBlend mode="normal" in2="effect1_innerShadow_91_804" result="effect2_innerShadow_91_804"/>
<feColorMatrix in="SourceAlpha" type="matrix" values="0 0 0 0 0 0 0 0 0 0 0 0 0 0 0 0 0 0 127 0" result="hardAlpha"/>
<feOffset dx="0.1" dy="-0.1"/>
<feGaussianBlur stdDeviation="0.075"/>
<feComposite in2="hardAlpha" operator="arithmetic" k2="-1" k3="1"/>
<feColorMatrix type="matrix" values="0 0 0 0 0.572549 0 0 0 0 0.564706 0 0 0 0 0.607843 0 0 0 1 0"/>
<feBlend mode="normal" in2="effect2_innerShadow_91_804" result="effect3_innerShadow_91_804"/>
</filter>
<filter id="filter7_iii_91_804" x="37.3639" y="39.133" width="6.24785" height="6.24834" filterUnits="userSpaceOnUse" color-interpolation-filters="sRGB">
<feFlood flood-opacity="0" result="BackgroundImageFix"/>
<feBlend mode="normal" in="SourceGraphic" in2="BackgroundImageFix" result="shape"/>
<feColorMatrix in="SourceAlpha" type="matrix" values="0 0 0 0 0 0 0 0 0 0 0 0 0 0 0 0 0 0 127 0" result="hardAlpha"/>
<feOffset dx="-0.1" dy="0.1"/>
<feGaussianBlur stdDeviation="0.15"/>
<feComposite in2="hardAlpha" operator="arithmetic" k2="-1" k3="1"/>
<feColorMatrix type="matrix" values="0 0 0 0 0.772549 0 0 0 0 0.752941 0 0 0 0 0.803922 0 0 0 1 0"/>
<feBlend mode="normal" in2="shape" result="effect1_innerShadow_91_804"/>
<feColorMatrix in="SourceAlpha" type="matrix" values="0 0 0 0 0 0 0 0 0 0 0 0 0 0 0 0 0 0 127 0" result="hardAlpha"/>
<feOffset dx="-0.1" dy="0.1"/>
<feGaussianBlur stdDeviation="0.075"/>
<feComposite in2="hardAlpha" operator="arithmetic" k2="-1" k3="1"/>
<feColorMatrix type="matrix" values="0 0 0 0 0.654902 0 0 0 0 0.647059 0 0 0 0 0.682353 0 0 0 1 0"/>
<feBlend mode="normal" in2="effect1_innerShadow_91_804" result="effect2_innerShadow_91_804"/>
<feColorMatrix in="SourceAlpha" type="matrix" values="0 0 0 0 0 0 0 0 0 0 0 0 0 0 0 0 0 0 127 0" result="hardAlpha"/>
<feOffset dx="0.1" dy="-0.1"/>
<feGaussianBlur stdDeviation="0.075"/>
<feComposite in2="hardAlpha" operator="arithmetic" k2="-1" k3="1"/>
<feColorMatrix type="matrix" values="0 0 0 0 0.572549 0 0 0 0 0.564706 0 0 0 0 0.607843 0 0 0 1 0"/>
<feBlend mode="normal" in2="effect2_innerShadow_91_804" result="effect3_innerShadow_91_804"/>
</filter>
<filter id="filter8_iii_91_804" x="37.3639" y="49.9143" width="6.24785" height="6.24834" filterUnits="userSpaceOnUse" color-interpolation-filters="sRGB">
<feFlood flood-opacity="0" result="BackgroundImageFix"/>
<feBlend mode="normal" in="SourceGraphic" in2="BackgroundImageFix" result="shape"/>
<feColorMatrix in="SourceAlpha" type="matrix" values="0 0 0 0 0 0 0 0 0 0 0 0 0 0 0 0 0 0 127 0" result="hardAlpha"/>
<feOffset dx="-0.1" dy="0.1"/>
<feGaussianBlur stdDeviation="0.15"/>
<feComposite in2="hardAlpha" operator="arithmetic" k2="-1" k3="1"/>
<feColorMatrix type="matrix" values="0 0 0 0 0.772549 0 0 0 0 0.752941 0 0 0 0 0.803922 0 0 0 1 0"/>
<feBlend mode="normal" in2="shape" result="effect1_innerShadow_91_804"/>
<feColorMatrix in="SourceAlpha" type="matrix" values="0 0 0 0 0 0 0 0 0 0 0 0 0 0 0 0 0 0 127 0" result="hardAlpha"/>
<feOffset dx="-0.1" dy="0.1"/>
<feGaussianBlur stdDeviation="0.075"/>
<feComposite in2="hardAlpha" operator="arithmetic" k2="-1" k3="1"/>
<feColorMatrix type="matrix" values="0 0 0 0 0.654902 0 0 0 0 0.647059 0 0 0 0 0.682353 0 0 0 1 0"/>
<feBlend mode="normal" in2="effect1_innerShadow_91_804" result="effect2_innerShadow_91_804"/>
<feColorMatrix in="SourceAlpha" type="matrix" values="0 0 0 0 0 0 0 0 0 0 0 0 0 0 0 0 0 0 127 0" result="hardAlpha"/>
<feOffset dx="0.1" dy="-0.1"/>
<feGaussianBlur stdDeviation="0.075"/>
<feComposite in2="hardAlpha" operator="arithmetic" k2="-1" k3="1"/>
<feColorMatrix type="matrix" values="0 0 0 0 0.572549 0 0 0 0 0.564706 0 0 0 0 0.607843 0 0 0 1 0"/>
<feBlend mode="normal" in2="effect2_innerShadow_91_804" result="effect3_innerShadow_91_804"/>
</filter>
<filter id="filter9_iii_91_804" x="50.275" y="39.133" width="6.24785" height="6.24834" filterUnits="userSpaceOnUse" color-interpolation-filters="sRGB">
<feFlood flood-opacity="0" result="BackgroundImageFix"/>
<feBlend mode="normal" in="SourceGraphic" in2="BackgroundImageFix" result="shape"/>
<feColorMatrix in="SourceAlpha" type="matrix" values="0 0 0 0 0 0 0 0 0 0 0 0 0 0 0 0 0 0 127 0" result="hardAlpha"/>
<feOffset dx="-0.1" dy="0.1"/>
<feGaussianBlur stdDeviation="0.15"/>
<feComposite in2="hardAlpha" operator="arithmetic" k2="-1" k3="1"/>
<feColorMatrix type="matrix" values="0 0 0 0 0.772549 0 0 0 0 0.752941 0 0 0 0 0.803922 0 0 0 1 0"/>
<feBlend mode="normal" in2="shape" result="effect1_innerShadow_91_804"/>
<feColorMatrix in="SourceAlpha" type="matrix" values="0 0 0 0 0 0 0 0 0 0 0 0 0 0 0 0 0 0 127 0" result="hardAlpha"/>
<feOffset dx="-0.1" dy="0.1"/>
<feGaussianBlur stdDeviation="0.075"/>
<feComposite in2="hardAlpha" operator="arithmetic" k2="-1" k3="1"/>
<feColorMatrix type="matrix" values="0 0 0 0 0.654902 0 0 0 0 0.647059 0 0 0 0 0.682353 0 0 0 1 0"/>
<feBlend mode="normal" in2="effect1_innerShadow_91_804" result="effect2_innerShadow_91_804"/>
<feColorMatrix in="SourceAlpha" type="matrix" values="0 0 0 0 0 0 0 0 0 0 0 0 0 0 0 0 0 0 127 0" result="hardAlpha"/>
<feOffset dx="0.1" dy="-0.1"/>
<feGaussianBlur stdDeviation="0.075"/>
<feComposite in2="hardAlpha" operator="arithmetic" k2="-1" k3="1"/>
<feColorMatrix type="matrix" values="0 0 0 0 0.572549 0 0 0 0 0.564706 0 0 0 0 0.607843 0 0 0 1 0"/>
<feBlend mode="normal" in2="effect2_innerShadow_91_804" result="effect3_innerShadow_91_804"/>
</filter>
<filter id="filter10_iii_91_804" x="50.275" y="49.9143" width="6.24785" height="6.24834" filterUnits="userSpaceOnUse" color-interpolation-filters="sRGB">
<feFlood flood-opacity="0" result="BackgroundImageFix"/>
<feBlend mode="normal" in="SourceGraphic" in2="BackgroundImageFix" result="shape"/>
<feColorMatrix in="SourceAlpha" type="matrix" values="0 0 0 0 0 0 0 0 0 0 0 0 0 0 0 0 0 0 127 0" result="hardAlpha"/>
<feOffset dx="-0.1" dy="0.1"/>
<feGaussianBlur stdDeviation="0.15"/>
<feComposite in2="hardAlpha" operator="arithmetic" k2="-1" k3="1"/>
<feColorMatrix type="matrix" values="0 0 0 0 0.772549 0 0 0 0 0.752941 0 0 0 0 0.803922 0 0 0 1 0"/>
<feBlend mode="normal" in2="shape" result="effect1_innerShadow_91_804"/>
<feColorMatrix in="SourceAlpha" type="matrix" values="0 0 0 0 0 0 0 0 0 0 0 0 0 0 0 0 0 0 127 0" result="hardAlpha"/>
<feOffset dx="-0.1" dy="0.1"/>
<feGaussianBlur stdDeviation="0.075"/>
<feComposite in2="hardAlpha" operator="arithmetic" k2="-1" k3="1"/>
<feColorMatrix type="matrix" values="0 0 0 0 0.654902 0 0 0 0 0.647059 0 0 0 0 0.682353 0 0 0 1 0"/>
<feBlend mode="normal" in2="effect1_innerShadow_91_804" result="effect2_innerShadow_91_804"/>
<feColorMatrix in="SourceAlpha" type="matrix" values="0 0 0 0 0 0 0 0 0 0 0 0 0 0 0 0 0 0 127 0" result="hardAlpha"/>
<feOffset dx="0.1" dy="-0.1"/>
<feGaussianBlur stdDeviation="0.075"/>
<feComposite in2="hardAlpha" operator="arithmetic" k2="-1" k3="1"/>
<feColorMatrix type="matrix" values="0 0 0 0 0.572549 0 0 0 0 0.564706 0 0 0 0 0.607843 0 0 0 1 0"/>
<feBlend mode="normal" in2="effect2_innerShadow_91_804" result="effect3_innerShadow_91_804"/>
</filter>
<filter id="filter11_iii_91_804" x="63.1871" y="39.133" width="6.24785" height="6.24834" filterUnits="userSpaceOnUse" color-interpolation-filters="sRGB">
<feFlood flood-opacity="0" result="BackgroundImageFix"/>
<feBlend mode="normal" in="SourceGraphic" in2="BackgroundImageFix" result="shape"/>
<feColorMatrix in="SourceAlpha" type="matrix" values="0 0 0 0 0 0 0 0 0 0 0 0 0 0 0 0 0 0 127 0" result="hardAlpha"/>
<feOffset dx="-0.1" dy="0.1"/>
<feGaussianBlur stdDeviation="0.15"/>
<feComposite in2="hardAlpha" operator="arithmetic" k2="-1" k3="1"/>
<feColorMatrix type="matrix" values="0 0 0 0 0.858824 0 0 0 0 0.835294 0 0 0 0 0.917647 0 0 0 1 0"/>
<feBlend mode="normal" in2="shape" result="effect1_innerShadow_91_804"/>
<feColorMatrix in="SourceAlpha" type="matrix" values="0 0 0 0 0 0 0 0 0 0 0 0 0 0 0 0 0 0 127 0" result="hardAlpha"/>
<feOffset dx="-0.1" dy="0.1"/>
<feGaussianBlur stdDeviation="0.075"/>
<feComposite in2="hardAlpha" operator="arithmetic" k2="-1" k3="1"/>
<feColorMatrix type="matrix" values="0 0 0 0 0.34902 0 0 0 0 0.631373 0 0 0 0 0.917647 0 0 0 1 0"/>
<feBlend mode="normal" in2="effect1_innerShadow_91_804" result="effect2_innerShadow_91_804"/>
<feColorMatrix in="SourceAlpha" type="matrix" values="0 0 0 0 0 0 0 0 0 0 0 0 0 0 0 0 0 0 127 0" result="hardAlpha"/>
<feOffset dx="0.1" dy="-0.1"/>
<feGaussianBlur stdDeviation="0.075"/>
<feComposite in2="hardAlpha" operator="arithmetic" k2="-1" k3="1"/>
<feColorMatrix type="matrix" values="0 0 0 0 0.254902 0 0 0 0 0.498039 0 0 0 0 0.819608 0 0 0 1 0"/>
<feBlend mode="normal" in2="effect2_innerShadow_91_804" result="effect3_innerShadow_91_804"/>
</filter>
<filter id="filter12_iii_91_804" x="63.1871" y="49.9143" width="6.24785" height="6.24834" filterUnits="userSpaceOnUse" color-interpolation-filters="sRGB">
<feFlood flood-opacity="0" result="BackgroundImageFix"/>
<feBlend mode="normal" in="SourceGraphic" in2="BackgroundImageFix" result="shape"/>
<feColorMatrix in="SourceAlpha" type="matrix" values="0 0 0 0 0 0 0 0 0 0 0 0 0 0 0 0 0 0 127 0" result="hardAlpha"/>
<feOffset dx="-0.1" dy="0.1"/>
<feGaussianBlur stdDeviation="0.15"/>
<feComposite in2="hardAlpha" operator="arithmetic" k2="-1" k3="1"/>
<feColorMatrix type="matrix" values="0 0 0 0 0.772549 0 0 0 0 0.752941 0 0 0 0 0.803922 0 0 0 1 0"/>
<feBlend mode="normal" in2="shape" result="effect1_innerShadow_91_804"/>
<feColorMatrix in="SourceAlpha" type="matrix" values="0 0 0 0 0 0 0 0 0 0 0 0 0 0 0 0 0 0 127 0" result="hardAlpha"/>
<feOffset dx="-0.1" dy="0.1"/>
<feGaussianBlur stdDeviation="0.075"/>
<feComposite in2="hardAlpha" operator="arithmetic" k2="-1" k3="1"/>
<feColorMatrix type="matrix" values="0 0 0 0 0.654902 0 0 0 0 0.647059 0 0 0 0 0.682353 0 0 0 1 0"/>
<feBlend mode="normal" in2="effect1_innerShadow_91_804" result="effect2_innerShadow_91_804"/>
<feColorMatrix in="SourceAlpha" type="matrix" values="0 0 0 0 0 0 0 0 0 0 0 0 0 0 0 0 0 0 127 0" result="hardAlpha"/>
<feOffset dx="0.1" dy="-0.1"/>
<feGaussianBlur stdDeviation="0.075"/>
<feComposite in2="hardAlpha" operator="arithmetic" k2="-1" k3="1"/>
<feColorMatrix type="matrix" values="0 0 0 0 0.572549 0 0 0 0 0.564706 0 0 0 0 0.607843 0 0 0 1 0"/>
<feBlend mode="normal" in2="effect2_innerShadow_91_804" result="effect3_innerShadow_91_804"/>
</filter>
<filter id="filter13_i_91_804" x="62.5107" y="42.7369" width="21.1088" height="21.1088" filterUnits="userSpaceOnUse" color-interpolation-filters="sRGB">
<feFlood flood-opacity="0" result="BackgroundImageFix"/>
<feBlend mode="normal" in="SourceGraphic" in2="BackgroundImageFix" result="shape"/>
<feColorMatrix in="SourceAlpha" type="matrix" values="0 0 0 0 0 0 0 0 0 0 0 0 0 0 0 0 0 0 127 0" result="hardAlpha"/>
<feOffset dx="0.1" dy="0.1"/>
<feGaussianBlur stdDeviation="0.1"/>
<feComposite in2="hardAlpha" operator="arithmetic" k2="-1" k3="1"/>
<feColorMatrix type="matrix" values="0 0 0 0 0.803922 0 0 0 0 0.807843 0 0 0 0 0.870588 0 0 0 1 0"/>
<feBlend mode="normal" in2="shape" result="effect1_innerShadow_91_804"/>
</filter>
<filter id="filter14_f_91_804" x="46.8594" y="7.9425" width="36.4688" height="14.5703" filterUnits="userSpaceOnUse" color-interpolation-filters="sRGB">
<feFlood flood-opacity="0" result="BackgroundImageFix"/>
<feBlend mode="normal" in="SourceGraphic" in2="BackgroundImageFix" result="shape"/>
<feGaussianBlur stdDeviation="0.625" result="effect1_foregroundBlur_91_804"/>
</filter>
<filter id="filter15_f_91_804" x="61.7627" y="6.94788" width="8.89062" height="11.0427" filterUnits="userSpaceOnUse" color-interpolation-filters="sRGB">
<feFlood flood-opacity="0" result="BackgroundImageFix"/>
<feBlend mode="normal" in="SourceGraphic" in2="BackgroundImageFix" result="shape"/>
<feGaussianBlur stdDeviation="0.375" result="effect1_foregroundBlur_91_804"/>
</filter>
<filter id="filter16_f_91_804" x="49.625" y="6.94788" width="8.89062" height="11.0427" filterUnits="userSpaceOnUse" color-interpolation-filters="sRGB">
<feFlood flood-opacity="0" result="BackgroundImageFix"/>
<feBlend mode="normal" in="SourceGraphic" in2="BackgroundImageFix" result="shape"/>
<feGaussianBlur stdDeviation="0.375" result="effect1_foregroundBlur_91_804"/>
</filter>
<filter id="filter17_f_91_804" x="38.4971" y="6.94788" width="8.89062" height="11.0427" filterUnits="userSpaceOnUse" color-interpolation-filters="sRGB">
<feFlood flood-opacity="0" result="BackgroundImageFix"/>
<feBlend mode="normal" in="SourceGraphic" in2="BackgroundImageFix" result="shape"/>
<feGaussianBlur stdDeviation="0.375" result="effect1_foregroundBlur_91_804"/>
</filter>
<filter id="filter18_f_91_804" x="28.0605" y="6.94788" width="8.83398" height="11.043" filterUnits="userSpaceOnUse" color-interpolation-filters="sRGB">
<feFlood flood-opacity="0" result="BackgroundImageFix"/>
<feBlend mode="normal" in="SourceGraphic" in2="BackgroundImageFix" result="shape"/>
<feGaussianBlur stdDeviation="0.375" result="effect1_foregroundBlur_91_804"/>
</filter>
<filter id="filter19_f_91_804" x="30.7789" y="2.93687" width="10.7293" height="12.6249" filterUnits="userSpaceOnUse" color-interpolation-filters="sRGB">
<feFlood flood-opacity="0" result="BackgroundImageFix"/>
<feBlend mode="normal" in="SourceGraphic" in2="BackgroundImageFix" result="shape"/>
<feGaussianBlur stdDeviation="0.3" result="effect1_foregroundBlur_91_804"/>
</filter>
<filter id="filter20_f_91_804" x="42.0172" y="2.93687" width="10.7322" height="12.6249" filterUnits="userSpaceOnUse" color-interpolation-filters="sRGB">
<feFlood flood-opacity="0" result="BackgroundImageFix"/>
<feBlend mode="normal" in="SourceGraphic" in2="BackgroundImageFix" result="shape"/>
<feGaussianBlur stdDeviation="0.3" result="effect1_foregroundBlur_91_804"/>
</filter>
<filter id="filter21_f_91_804" x="53.3375" y="2.93687" width="10.7322" height="12.6249" filterUnits="userSpaceOnUse" color-interpolation-filters="sRGB">
<feFlood flood-opacity="0" result="BackgroundImageFix"/>
<feBlend mode="normal" in="SourceGraphic" in2="BackgroundImageFix" result="shape"/>
<feGaussianBlur stdDeviation="0.3" result="effect1_foregroundBlur_91_804"/>
</filter>
<filter id="filter22_f_91_804" x="64.6383" y="2.93687" width="10.7293" height="12.6249" filterUnits="userSpaceOnUse" color-interpolation-filters="sRGB">
<feFlood flood-opacity="0" result="BackgroundImageFix"/>
<feBlend mode="normal" in="SourceGraphic" in2="BackgroundImageFix" result="shape"/>
<feGaussianBlur stdDeviation="0.3" result="effect1_foregroundBlur_91_804"/>
</filter>
<linearGradient id="paint0_linear_91_804" x1="30.1584" y1="38.9635" x2="79.4244" y2="38.9635" gradientUnits="userSpaceOnUse">
<stop stop-color="#E4DEEC"/>
<stop offset="1" stop-color="#E7E2EF"/>
</linearGradient>
<linearGradient id="paint1_linear_91_804" x1="22.7754" y1="19.0441" x2="79.0212" y2="19.0441" gradientUnits="userSpaceOnUse">
<stop stop-color="#4271C7"/>
<stop offset="0.794" stop-color="#4F9FDC"/>
</linearGradient>
<linearGradient id="paint2_linear_91_804" x1="53.4998" y1="7.69788" x2="53.4998" y2="11.8293" gradientUnits="userSpaceOnUse">
<stop stop-color="#5591D3"/>
<stop offset="1" stop-color="#5591D3" stop-opacity="0"/>
</linearGradient>
<radialGradient id="paint3_radial_91_804" cx="0" cy="0" r="1" gradientUnits="userSpaceOnUse" gradientTransform="translate(65.8141 22.3884) rotate(-170.157) scale(42.9665 23.8865)">
<stop offset="0.759" stop-color="#3E62C2" stop-opacity="0"/>
<stop offset="1" stop-color="#3B41A1"/>
</radialGradient>
<linearGradient id="paint4_linear_91_804" x1="64.6584" y1="24.1587" x2="64.6584" y2="21.0106" gradientUnits="userSpaceOnUse">
<stop stop-color="#437AC4"/>
<stop offset="1" stop-color="#437AC4" stop-opacity="0"/>
</linearGradient>
<linearGradient id="paint5_linear_91_804" x1="69.9758" y1="39.233" x2="62.0904" y2="44.8932" gradientUnits="userSpaceOnUse">
<stop stop-color="#4C92DE"/>
<stop offset="1" stop-color="#4B91DB"/>
</linearGradient>
<radialGradient id="paint6_radial_91_804" cx="0" cy="0" r="1" gradientUnits="userSpaceOnUse" gradientTransform="translate(68.628 47.9939) rotate(45.6993) scale(7.33235 17.7692)">
<stop stop-color="#E4DDED"/>
<stop offset="1" stop-color="#D5CFDC"/>
</radialGradient>
<linearGradient id="paint7_linear_91_804" x1="73.1432" y1="54.4863" x2="72.5869" y2="53.9322" gradientUnits="userSpaceOnUse">
<stop offset="0.461" stop-color="#BFB8CA"/>
<stop offset="1" stop-color="#D9D3E0" stop-opacity="0"/>
</linearGradient>
<radialGradient id="paint8_radial_91_804" cx="0" cy="0" r="1" gradientUnits="userSpaceOnUse" gradientTransform="translate(85.6439 9.94379) rotate(152.761) scale(21.751 31.2762)">
<stop stop-color="#70C0F8"/>
<stop offset="1" stop-color="#70C0F8" stop-opacity="0"/>
</radialGradient>
<radialGradient id="paint9_radial_91_804" cx="0" cy="0" r="1" gradientUnits="userSpaceOnUse" gradientTransform="translate(39.4067 8.48713) rotate(137.82) scale(10.0478 11.1279)">
<stop offset="0.525" stop-color="#C2C4CC"/>
<stop offset="0.962" stop-color="#938DA1"/>
</radialGradient>
<radialGradient id="paint10_radial_91_804" cx="0" cy="0" r="1" gradientUnits="userSpaceOnUse" gradientTransform="translate(36.8105 9.71826) rotate(-60.5551) scale(5.20865 5.46799)">
<stop offset="0.546" stop-color="#8F96BB"/>
<stop offset="1" stop-color="#8F96BB" stop-opacity="0"/>
</radialGradient>
<radialGradient id="paint11_radial_91_804" cx="0" cy="0" r="1" gradientUnits="userSpaceOnUse" gradientTransform="translate(50.6449 8.48695) rotate(137.82) scale(10.0478 11.1279)">
<stop offset="0.525" stop-color="#C2C4CC"/>
<stop offset="0.962" stop-color="#938DA1"/>
</radialGradient>
<radialGradient id="paint12_radial_91_804" cx="0" cy="0" r="1" gradientUnits="userSpaceOnUse" gradientTransform="translate(48.0488 9.72042) rotate(-60.5546) scale(5.20866 5.46798)">
<stop offset="0.546" stop-color="#8F96BB"/>
<stop offset="1" stop-color="#8F96BB" stop-opacity="0"/>
</radialGradient>
<radialGradient id="paint13_radial_91_804" cx="0" cy="0" r="1" gradientUnits="userSpaceOnUse" gradientTransform="translate(61.9646 8.48553) rotate(137.82) scale(10.0478 11.1279)">
<stop offset="0.525" stop-color="#C2C4CC"/>
<stop offset="0.962" stop-color="#938DA1"/>
</radialGradient>
<radialGradient id="paint14_radial_91_804" cx="0" cy="0" r="1" gradientUnits="userSpaceOnUse" gradientTransform="translate(59.3691 9.72042) rotate(-60.5546) scale(5.20866 5.46798)">
<stop offset="0.546" stop-color="#8F96BB"/>
<stop offset="1" stop-color="#8F96BB" stop-opacity="0"/>
</radialGradient>
<radialGradient id="paint15_radial_91_804" cx="0" cy="0" r="1" gradientUnits="userSpaceOnUse" gradientTransform="translate(73.2626 8.48385) rotate(137.82) scale(10.0478 11.1279)">
<stop offset="0.525" stop-color="#C2C4CC"/>
<stop offset="0.962" stop-color="#938DA1"/>
</radialGradient>
<radialGradient id="paint16_radial_91_804" cx="0" cy="0" r="1" gradientUnits="userSpaceOnUse" gradientTransform="translate(70.6699 9.72042) rotate(-60.5546) scale(5.20866 5.46798)">
<stop offset="0.546" stop-color="#8F96BB"/>
<stop offset="1" stop-color="#8F96BB" stop-opacity="0"/>
</radialGradient>
<clipPath id="clip0_91_804">
<rect width="5" height="5" fill="white" transform="translate(29.7705 108.886)"/>
</clipPath>
<clipPath id="clip1_91_804">
<rect width="5" height="5" fill="white" transform="translate(220.04 153.453)"/>
</clipPath>
</defs>
</svg>
