<svg width="296" height="203" viewBox="0 0 296 203" fill="none" xmlns="http://www.w3.org/2000/svg">
<rect y="65.8411" width="295.813" height="137.159" rx="10" fill="#EDF5F9"/>
<path d="M56.9062 100.546C49.7384 100.546 43.9062 106.378 43.9062 113.546C43.9062 120.714 49.7384 126.546 56.9062 126.546C64.0741 126.546 69.9062 120.714 69.9062 113.546C69.9062 106.378 64.0741 100.546 56.9062 100.546ZM56.9062 123.296C51.5291 123.296 47.1562 118.923 47.1562 113.546C47.1562 108.169 51.5291 103.796 56.9062 103.796C62.2834 103.796 66.6562 108.169 66.6562 113.546C66.6562 118.923 62.2834 123.296 56.9062 123.296Z" fill="#2D3B41"/>
<path d="M55.2812 107.046H58.5312V115.171H55.2812V107.046ZM52.0312 95.6707H61.7812V98.9207H52.0312V95.6707ZM68.7574 104.945L65.5074 101.695L67.8051 99.3968L71.0551 102.647L68.7574 104.945Z" fill="#2D3B41"/>
<path d="M92.9863 118.921L89.9063 113.481H88.5863V118.921H85.7863V104.961H91.0263C92.1063 104.961 93.0263 105.154 93.7863 105.541C94.5463 105.914 95.1129 106.427 95.4863 107.081C95.8729 107.721 96.0663 108.441 96.0663 109.241C96.0663 110.161 95.7996 110.994 95.2663 111.741C94.7329 112.474 93.9396 112.981 92.8863 113.261L96.2263 118.921H92.9863ZM88.5863 111.381H90.9263C91.6863 111.381 92.2529 111.201 92.6263 110.841C92.9996 110.467 93.1863 109.954 93.1863 109.301C93.1863 108.661 92.9996 108.167 92.6263 107.821C92.2529 107.461 91.6863 107.281 90.9263 107.281H88.5863V111.381ZM108.899 113.141C108.899 113.541 108.872 113.901 108.819 114.221H100.719C100.785 115.021 101.065 115.647 101.559 116.101C102.052 116.554 102.659 116.781 103.379 116.781C104.419 116.781 105.159 116.334 105.599 115.441H108.619C108.299 116.507 107.685 117.387 106.779 118.081C105.872 118.761 104.759 119.101 103.439 119.101C102.372 119.101 101.412 118.867 100.559 118.401C99.7188 117.921 99.0588 117.247 98.5788 116.381C98.1121 115.514 97.8787 114.514 97.8787 113.381C97.8787 112.234 98.1121 111.227 98.5788 110.361C99.0454 109.494 99.6988 108.827 100.539 108.361C101.379 107.894 102.345 107.661 103.439 107.661C104.492 107.661 105.432 107.887 106.259 108.341C107.099 108.794 107.745 109.441 108.199 110.281C108.665 111.107 108.899 112.061 108.899 113.141ZM105.999 112.341C105.985 111.621 105.725 111.047 105.219 110.621C104.712 110.181 104.092 109.961 103.359 109.961C102.665 109.961 102.079 110.174 101.599 110.601C101.132 111.014 100.845 111.594 100.739 112.341H105.999ZM124.703 107.681C126.063 107.681 127.156 108.101 127.983 108.941C128.823 109.767 129.243 110.927 129.243 112.421V118.921H126.443V112.801C126.443 111.934 126.223 111.274 125.783 110.821C125.343 110.354 124.743 110.121 123.983 110.121C123.223 110.121 122.616 110.354 122.163 110.821C121.723 111.274 121.503 111.934 121.503 112.801V118.921H118.703V112.801C118.703 111.934 118.483 111.274 118.043 110.821C117.603 110.354 117.003 110.121 116.243 110.121C115.469 110.121 114.856 110.354 114.403 110.821C113.963 111.274 113.743 111.934 113.743 112.801V118.921H110.943V107.841H113.743V109.181C114.103 108.714 114.563 108.347 115.123 108.081C115.696 107.814 116.323 107.681 117.003 107.681C117.869 107.681 118.643 107.867 119.323 108.241C120.003 108.601 120.529 109.121 120.903 109.801C121.263 109.161 121.783 108.647 122.463 108.261C123.156 107.874 123.903 107.681 124.703 107.681ZM131.18 113.341C131.18 112.221 131.4 111.227 131.84 110.361C132.293 109.494 132.9 108.827 133.66 108.361C134.433 107.894 135.293 107.661 136.24 107.661C137.066 107.661 137.786 107.827 138.4 108.161C139.026 108.494 139.526 108.914 139.9 109.421V107.841H142.72V118.921H139.9V117.301C139.54 117.821 139.04 118.254 138.4 118.601C137.773 118.934 137.046 119.101 136.22 119.101C135.286 119.101 134.433 118.861 133.66 118.381C132.9 117.901 132.293 117.227 131.84 116.361C131.4 115.481 131.18 114.474 131.18 113.341ZM139.9 113.381C139.9 112.701 139.766 112.121 139.5 111.641C139.233 111.147 138.873 110.774 138.42 110.521C137.966 110.254 137.48 110.121 136.96 110.121C136.44 110.121 135.96 110.247 135.52 110.501C135.08 110.754 134.72 111.127 134.44 111.621C134.173 112.101 134.04 112.674 134.04 113.341C134.04 114.007 134.173 114.594 134.44 115.101C134.72 115.594 135.08 115.974 135.52 116.241C135.973 116.507 136.453 116.641 136.96 116.641C137.48 116.641 137.966 116.514 138.42 116.261C138.873 115.994 139.233 115.621 139.5 115.141C139.766 114.647 139.9 114.061 139.9 113.381ZM146.874 106.521C146.381 106.521 145.968 106.367 145.634 106.061C145.314 105.741 145.154 105.347 145.154 104.881C145.154 104.414 145.314 104.027 145.634 103.721C145.968 103.401 146.381 103.241 146.874 103.241C147.368 103.241 147.774 103.401 148.094 103.721C148.428 104.027 148.594 104.414 148.594 104.881C148.594 105.347 148.428 105.741 148.094 106.061C147.774 106.367 147.368 106.521 146.874 106.521ZM148.254 107.841V118.921H145.454V107.841H148.254ZM157.161 107.681C158.481 107.681 159.547 108.101 160.361 108.941C161.174 109.767 161.581 110.927 161.581 112.421V118.921H158.781V112.801C158.781 111.921 158.561 111.247 158.121 110.781C157.681 110.301 157.081 110.061 156.321 110.061C155.547 110.061 154.934 110.301 154.481 110.781C154.041 111.247 153.821 111.921 153.821 112.801V118.921H151.021V107.841H153.821V109.221C154.194 108.741 154.667 108.367 155.241 108.101C155.827 107.821 156.467 107.681 157.161 107.681ZM165.663 106.521C165.17 106.521 164.757 106.367 164.423 106.061C164.103 105.741 163.943 105.347 163.943 104.881C163.943 104.414 164.103 104.027 164.423 103.721C164.757 103.401 165.17 103.241 165.663 103.241C166.157 103.241 166.563 103.401 166.883 103.721C167.217 104.027 167.383 104.414 167.383 104.881C167.383 105.347 167.217 105.741 166.883 106.061C166.563 106.367 166.157 106.521 165.663 106.521ZM167.043 107.841V118.921H164.243V107.841H167.043ZM175.95 107.681C177.27 107.681 178.336 108.101 179.15 108.941C179.963 109.767 180.37 110.927 180.37 112.421V118.921H177.57V112.801C177.57 111.921 177.35 111.247 176.91 110.781C176.47 110.301 175.87 110.061 175.11 110.061C174.336 110.061 173.723 110.301 173.27 110.781C172.83 111.247 172.61 111.921 172.61 112.801V118.921H169.81V107.841H172.61V109.221C172.983 108.741 173.456 108.367 174.03 108.101C174.616 107.821 175.256 107.681 175.95 107.681ZM187.372 107.661C188.199 107.661 188.926 107.827 189.552 108.161C190.179 108.481 190.672 108.901 191.032 109.421V107.841H193.852V119.001C193.852 120.027 193.646 120.941 193.232 121.741C192.819 122.554 192.199 123.194 191.372 123.661C190.546 124.141 189.546 124.381 188.372 124.381C186.799 124.381 185.506 124.014 184.492 123.281C183.492 122.547 182.926 121.547 182.792 120.281H185.572C185.719 120.787 186.032 121.187 186.512 121.481C187.006 121.787 187.599 121.941 188.292 121.941C189.106 121.941 189.766 121.694 190.272 121.201C190.779 120.721 191.032 119.987 191.032 119.001V117.281C190.672 117.801 190.172 118.234 189.532 118.581C188.906 118.927 188.186 119.101 187.372 119.101C186.439 119.101 185.586 118.861 184.812 118.381C184.039 117.901 183.426 117.227 182.972 116.361C182.532 115.481 182.312 114.474 182.312 113.341C182.312 112.221 182.532 111.227 182.972 110.361C183.426 109.494 184.032 108.827 184.792 108.361C185.566 107.894 186.426 107.661 187.372 107.661ZM191.032 113.381C191.032 112.701 190.899 112.121 190.632 111.641C190.366 111.147 190.006 110.774 189.552 110.521C189.099 110.254 188.612 110.121 188.092 110.121C187.572 110.121 187.092 110.247 186.652 110.501C186.212 110.754 185.852 111.127 185.572 111.621C185.306 112.101 185.172 112.674 185.172 113.341C185.172 114.007 185.306 114.594 185.572 115.101C185.852 115.594 186.212 115.974 186.652 116.241C187.106 116.507 187.586 116.641 188.092 116.641C188.612 116.641 189.099 116.514 189.552 116.261C190.006 115.994 190.366 115.621 190.632 115.141C190.899 114.647 191.032 114.061 191.032 113.381ZM210.853 104.961V107.221H207.133V118.921H204.333V107.221H200.613V104.961H210.853ZM214.316 106.521C213.822 106.521 213.409 106.367 213.076 106.061C212.756 105.741 212.596 105.347 212.596 104.881C212.596 104.414 212.756 104.027 213.076 103.721C213.409 103.401 213.822 103.241 214.316 103.241C214.809 103.241 215.216 103.401 215.536 103.721C215.869 104.027 216.036 104.414 216.036 104.881C216.036 105.347 215.869 105.741 215.536 106.061C215.216 106.367 214.809 106.521 214.316 106.521ZM215.696 107.841V118.921H212.896V107.841H215.696ZM232.222 107.681C233.582 107.681 234.675 108.101 235.502 108.941C236.342 109.767 236.762 110.927 236.762 112.421V118.921H233.962V112.801C233.962 111.934 233.742 111.274 233.302 110.821C232.862 110.354 232.262 110.121 231.502 110.121C230.742 110.121 230.135 110.354 229.682 110.821C229.242 111.274 229.022 111.934 229.022 112.801V118.921H226.222V112.801C226.222 111.934 226.002 111.274 225.562 110.821C225.122 110.354 224.522 110.121 223.762 110.121C222.989 110.121 222.375 110.354 221.922 110.821C221.482 111.274 221.262 111.934 221.262 112.801V118.921H218.462V107.841H221.262V109.181C221.622 108.714 222.082 108.347 222.642 108.081C223.215 107.814 223.842 107.681 224.522 107.681C225.389 107.681 226.162 107.867 226.842 108.241C227.522 108.601 228.049 109.121 228.422 109.801C228.782 109.161 229.302 108.647 229.982 108.261C230.675 107.874 231.422 107.681 232.222 107.681ZM249.719 113.141C249.719 113.541 249.692 113.901 249.639 114.221H241.539C241.606 115.021 241.886 115.647 242.379 116.101C242.872 116.554 243.479 116.781 244.199 116.781C245.239 116.781 245.979 116.334 246.419 115.441H249.439C249.119 116.507 248.506 117.387 247.599 118.081C246.692 118.761 245.579 119.101 244.259 119.101C243.192 119.101 242.232 118.867 241.379 118.401C240.539 117.921 239.879 117.247 239.399 116.381C238.932 115.514 238.699 114.514 238.699 113.381C238.699 112.234 238.932 111.227 239.399 110.361C239.866 109.494 240.519 108.827 241.359 108.361C242.199 107.894 243.166 107.661 244.259 107.661C245.312 107.661 246.252 107.887 247.079 108.341C247.919 108.794 248.566 109.441 249.019 110.281C249.486 111.107 249.719 112.061 249.719 113.141ZM246.819 112.341C246.806 111.621 246.546 111.047 246.039 110.621C245.532 110.181 244.912 109.961 244.179 109.961C243.486 109.961 242.899 110.174 242.419 110.601C241.952 111.014 241.666 111.594 241.559 112.341H246.819Z" fill="#2D3B41"/>
<path d="M73.4333 171.826C76.5693 169.114 79.0356 166.893 80.8323 165.162C82.6616 163.398 84.1806 161.568 85.3893 159.674C86.5979 157.779 87.2023 155.884 87.2023 153.99C87.2023 152.03 86.7286 150.494 85.7813 149.384C84.8666 148.273 83.4129 147.718 81.4203 147.718C79.4929 147.718 77.9903 148.338 76.9123 149.58C75.8669 150.788 75.3116 152.422 75.2463 154.48H69.8563C69.9543 150.756 71.0649 147.914 73.1883 145.954C75.3443 143.961 78.0719 142.965 81.3713 142.965C84.9319 142.965 87.7086 143.945 89.7013 145.905C91.7266 147.865 92.7393 150.478 92.7393 153.745C92.7393 156.097 92.1349 158.367 90.9263 160.556C89.7503 162.712 88.3293 164.655 86.6633 166.387C85.0299 168.085 82.9393 170.062 80.3913 172.316L78.1863 174.276H93.7193V178.931H69.9053V174.864L73.4333 171.826ZM97.9405 171.973V167.759L114.405 144.141H121.167V167.122H125.724V171.973H121.167V179.421H115.679V171.973H97.9405ZM115.924 149.825L104.36 167.122H115.924V149.825ZM146.07 179.764C145.057 179.764 144.208 179.421 143.522 178.735C142.836 178.049 142.493 177.199 142.493 176.187C142.493 175.174 142.836 174.325 143.522 173.639C144.208 172.953 145.057 172.61 146.07 172.61C147.05 172.61 147.883 172.953 148.569 173.639C149.255 174.325 149.598 175.174 149.598 176.187C149.598 177.199 149.255 178.049 148.569 178.735C147.883 179.421 147.05 179.764 146.07 179.764ZM146.07 159.184C145.057 159.184 144.208 158.841 143.522 158.155C142.836 157.469 142.493 156.619 142.493 155.607C142.493 154.594 142.836 153.745 143.522 153.059C144.208 152.373 145.057 152.03 146.07 152.03C147.05 152.03 147.883 152.373 148.569 153.059C149.255 153.745 149.598 154.594 149.598 155.607C149.598 156.619 149.255 157.469 148.569 158.155C147.883 158.841 147.05 159.184 146.07 159.184ZM167.134 171.973V167.759L183.598 144.141H190.36V167.122H194.917V171.973H190.36V179.421H184.872V171.973H167.134ZM185.117 149.825L173.553 167.122H185.117V149.825ZM206.503 169.719C206.83 171.352 207.532 172.593 208.61 173.443C209.688 174.292 211.142 174.717 212.971 174.717C215.291 174.717 216.989 173.802 218.067 171.973C219.145 170.143 219.684 167.024 219.684 162.614C218.9 163.724 217.79 164.59 216.352 165.211C214.948 165.799 213.412 166.093 211.746 166.093C209.623 166.093 207.696 165.668 205.964 164.819C204.233 163.937 202.861 162.646 201.848 160.948C200.868 159.216 200.378 157.126 200.378 154.676C200.378 151.082 201.424 148.224 203.514 146.101C205.638 143.945 208.545 142.867 212.236 142.867C216.679 142.867 219.831 144.353 221.693 147.326C223.588 150.266 224.535 154.79 224.535 160.899C224.535 165.113 224.176 168.559 223.457 171.238C222.771 173.916 221.563 175.942 219.831 177.314C218.1 178.686 215.699 179.372 212.628 179.372C209.133 179.372 206.438 178.457 204.543 176.628C202.649 174.798 201.587 172.495 201.358 169.719H206.503ZM212.726 161.389C214.686 161.389 216.222 160.784 217.332 159.576C218.476 158.334 219.047 156.701 219.047 154.676C219.047 152.422 218.443 150.674 217.234 149.433C216.058 148.159 214.441 147.522 212.383 147.522C210.325 147.522 208.692 148.175 207.483 149.482C206.307 150.756 205.719 152.438 205.719 154.529C205.719 156.521 206.291 158.171 207.434 159.478C208.61 160.752 210.374 161.389 212.726 161.389Z" fill="#2D3B41"/>
<path d="M253.386 17.9331H241.56V26.6532H253.386V17.9331Z" fill="url(#paint0_linear_91_680)"/>
<path d="M253.386 17.9331H241.56V26.6532H253.386V17.9331Z" fill="url(#paint1_linear_91_680)"/>
<g filter="url(#filter0_i_91_680)">
<path d="M231.596 33.0189L224.352 40.1403C222.873 41.5937 220.508 41.5937 219.059 40.1403L216.014 37.1464C214.536 35.693 214.536 33.3677 216.014 31.9434L223.258 24.8219C224.736 23.3686 227.101 23.3686 228.55 24.8219L231.625 27.8449C233.074 29.2401 233.074 31.5946 231.596 33.0189Z" fill="url(#paint2_linear_91_680)"/>
</g>
<path d="M263.321 33.0189L270.564 40.1403C272.043 41.5937 274.408 41.5937 275.857 40.1403L278.932 37.1173C280.41 35.664 280.41 33.3386 278.932 31.9143L271.688 24.7929C270.21 23.3395 267.844 23.3395 266.396 24.7929L263.321 27.8159C261.842 29.2402 261.842 31.5946 263.321 33.0189Z" fill="url(#paint3_linear_91_680)"/>
<path d="M263.321 33.0189L270.564 40.1403C272.043 41.5937 274.408 41.5937 275.857 40.1403L278.932 37.1173C280.41 35.664 280.41 33.3386 278.932 31.9143L271.688 24.7929C270.21 23.3395 267.844 23.3395 266.396 24.7929L263.321 27.8159C261.842 29.2402 261.842 31.5946 263.321 33.0189Z" fill="url(#paint4_linear_91_680)"/>
<path d="M263.321 33.0189L270.564 40.1403C272.043 41.5937 274.408 41.5937 275.857 40.1403L278.932 37.1173C280.41 35.664 280.41 33.3386 278.932 31.9143L271.688 24.7929C270.21 23.3395 267.844 23.3395 266.396 24.7929L263.321 27.8159C261.842 29.2402 261.842 31.5946 263.321 33.0189Z" fill="url(#paint5_linear_91_680)"/>
<path d="M247.472 87.6939C265.434 87.6939 279.996 73.3784 279.996 55.7201C279.996 38.0619 265.434 23.7463 247.472 23.7463C229.511 23.7463 214.949 38.0619 214.949 55.7201C214.949 73.3784 229.511 87.6939 247.472 87.6939Z" fill="url(#paint6_linear_91_680)"/>
<g filter="url(#filter1_f_91_680)">
<path d="M247.982 84.6071C264.489 84.6071 277.873 71.4485 277.873 55.2203C277.873 38.9922 264.489 25.8335 247.982 25.8335C231.475 25.8335 218.09 38.9922 218.09 55.2203C218.09 71.4485 231.475 84.6071 247.982 84.6071Z" stroke="url(#paint7_linear_91_680)" stroke-width="0.5"/>
</g>
<g filter="url(#filter2_f_91_680)">
<path d="M247.473 83.6072C254.996 83.6072 262.211 80.6691 267.53 75.4393C272.85 70.2094 275.839 63.1163 275.839 55.7202C275.839 48.3241 272.85 41.231 267.53 36.0012C262.211 30.7713 254.996 27.8333 247.473 27.8333C239.949 27.8333 232.734 30.7713 227.415 36.0012C222.095 41.231 219.106 48.3241 219.106 55.7202C219.106 63.1163 222.095 70.2094 227.415 75.4393C232.734 80.6691 239.949 83.6072 247.473 83.6072Z" fill="url(#paint8_linear_91_680)"/>
</g>
<g filter="url(#filter3_i_91_680)">
<path d="M255.544 17.933H239.371C237.302 17.933 235.616 16.2762 235.616 14.2415V9.99767C235.646 7.96298 237.302 6.30615 239.371 6.30615H255.514C257.584 6.30615 259.269 7.96298 259.269 9.99767V14.2415C259.299 16.2762 257.614 17.933 255.544 17.933Z" fill="url(#paint9_linear_91_680)"/>
<path d="M255.544 17.933H239.371C237.302 17.933 235.616 16.2762 235.616 14.2415V9.99767C235.646 7.96298 237.302 6.30615 239.371 6.30615H255.514C257.584 6.30615 259.269 7.96298 259.269 9.99767V14.2415C259.299 16.2762 257.614 17.933 255.544 17.933Z" fill="url(#paint10_linear_91_680)"/>
</g>
<path d="M247.473 81.8806C250.968 81.8806 254.428 81.2039 257.656 79.8892C260.885 78.5746 263.818 76.6476 266.289 74.2184C268.76 71.7892 270.72 68.9053 272.057 65.7313C273.395 62.5574 274.083 59.1556 274.083 55.7202C274.083 52.2848 273.395 48.883 272.057 45.709C270.72 42.5351 268.76 39.6512 266.289 37.222C263.818 34.7928 260.885 32.8658 257.656 31.5512C254.428 30.2365 250.968 29.5598 247.473 29.5598C240.416 29.5598 233.647 32.316 228.657 37.222C223.667 42.128 220.863 48.782 220.863 55.7202C220.863 62.6584 223.667 69.3123 228.657 74.2184C233.647 79.1244 240.416 81.8806 247.473 81.8806Z" fill="url(#paint11_linear_91_680)"/>
<g filter="url(#filter4_f_91_680)">
<path d="M247.473 81.154C250.871 81.154 254.235 80.4962 257.374 79.218C260.512 77.9398 263.364 76.0664 265.767 73.7047C268.169 71.3429 270.075 68.5391 271.375 65.4534C272.675 62.3676 273.344 59.0603 273.344 55.7203C273.344 52.3803 272.675 49.073 271.375 45.9873C270.075 42.9015 268.169 40.0977 265.767 37.736C263.364 35.3742 260.512 33.5008 257.374 32.2226C254.235 30.9445 250.871 30.2866 247.473 30.2866C240.612 30.2866 234.032 32.9662 229.18 37.736C224.328 42.5057 221.603 48.9749 221.603 55.7203C221.603 62.4658 224.328 68.9349 229.18 73.7047C234.032 78.4744 240.612 81.154 247.473 81.154Z" fill="url(#paint12_radial_91_680)"/>
<path d="M247.473 81.154C250.871 81.154 254.235 80.4962 257.374 79.218C260.512 77.9398 263.364 76.0664 265.767 73.7047C268.169 71.3429 270.075 68.5391 271.375 65.4534C272.675 62.3676 273.344 59.0603 273.344 55.7203C273.344 52.3803 272.675 49.073 271.375 45.9873C270.075 42.9015 268.169 40.0977 265.767 37.736C263.364 35.3742 260.512 33.5008 257.374 32.2226C254.235 30.9445 250.871 30.2866 247.473 30.2866C240.612 30.2866 234.032 32.9662 229.18 37.736C224.328 42.5057 221.603 48.9749 221.603 55.7203C221.603 62.4658 224.328 68.9349 229.18 73.7047C234.032 78.4744 240.612 81.154 247.473 81.154Z" fill="url(#paint13_radial_91_680)"/>
</g>
<g filter="url(#filter5_f_91_680)">
<path d="M243.984 58.3479C243.71 58.079 243.492 57.7596 243.344 57.408C243.196 57.0563 243.119 56.6794 243.119 56.2987C243.119 55.918 243.196 55.5411 243.344 55.1894C243.492 54.8378 243.71 54.5184 243.984 54.2495L258.619 39.8613C258.893 39.5922 259.218 39.3787 259.576 39.2331C259.933 39.0874 260.317 39.0125 260.704 39.0125C261.091 39.0125 261.474 39.0874 261.832 39.2331C262.189 39.3787 262.514 39.5922 262.788 39.8613C263.062 40.1304 263.279 40.4499 263.427 40.8015C263.575 41.1531 263.652 41.5299 263.652 41.9105C263.652 42.2911 263.575 42.6679 263.427 43.0195C263.279 43.3711 263.062 43.6906 262.788 43.9597L248.153 58.3479C247.879 58.6174 247.554 58.8312 247.197 58.977C246.839 59.1229 246.455 59.198 246.068 59.198C245.681 59.198 245.298 59.1229 244.94 58.977C244.582 58.8312 244.257 58.6174 243.984 58.3479Z" fill="url(#paint14_linear_91_680)"/>
</g>
<g filter="url(#filter6_ii_91_680)">
<path d="M244.517 38.28V35.3733C244.517 33.7746 245.847 32.4666 247.473 32.4666C249.099 32.4666 250.43 33.7746 250.43 35.3733V38.28C250.43 39.8787 249.099 41.1867 247.473 41.1867C245.818 41.1867 244.517 39.8787 244.517 38.28Z" fill="#9B93A5"/>
<path d="M244.517 38.28V35.3733C244.517 33.7746 245.847 32.4666 247.473 32.4666C249.099 32.4666 250.43 33.7746 250.43 35.3733V38.28C250.43 39.8787 249.099 41.1867 247.473 41.1867C245.818 41.1867 244.517 39.8787 244.517 38.28Z" fill="url(#paint15_radial_91_680)"/>
</g>
<g filter="url(#filter7_ii_91_680)">
<path d="M244.517 76.0671V73.1604C244.517 71.5617 245.847 70.2537 247.473 70.2537C249.099 70.2537 250.43 71.5617 250.43 73.1604V76.0671C250.43 77.6658 249.099 78.9738 247.473 78.9738C245.818 78.9738 244.517 77.6658 244.517 76.0671Z" fill="#9B93A5"/>
<path d="M244.517 76.0671V73.1604C244.517 71.5617 245.847 70.2537 247.473 70.2537C249.099 70.2537 250.43 71.5617 250.43 73.1604V76.0671C250.43 77.6658 249.099 78.9738 247.473 78.9738C245.818 78.9738 244.517 77.6658 244.517 76.0671Z" fill="url(#paint16_radial_91_680)"/>
</g>
<g filter="url(#filter8_ii_91_680)">
<path d="M265.213 52.8135H268.169C269.795 52.8135 271.126 54.1215 271.126 55.7202C271.126 57.3189 269.795 58.6269 268.169 58.6269H265.213C263.586 58.6269 262.256 57.3189 262.256 55.7202C262.256 54.1215 263.557 52.8135 265.213 52.8135Z" fill="#9B93A5"/>
<path d="M265.213 52.8135H268.169C269.795 52.8135 271.126 54.1215 271.126 55.7202C271.126 57.3189 269.795 58.6269 268.169 58.6269H265.213C263.586 58.6269 262.256 57.3189 262.256 55.7202C262.256 54.1215 263.557 52.8135 265.213 52.8135Z" fill="url(#paint17_linear_91_680)"/>
</g>
<g filter="url(#filter9_ii_91_680)">
<path d="M226.776 52.8135H229.733C231.359 52.8135 232.689 54.1215 232.689 55.7202C232.689 57.3189 231.359 58.6269 229.733 58.6269H226.776C225.15 58.6269 223.819 57.3189 223.819 55.7202C223.819 54.1215 225.12 52.8135 226.776 52.8135Z" fill="#9B93A5"/>
<path d="M226.776 52.8135H229.733C231.359 52.8135 232.689 54.1215 232.689 55.7202C232.689 57.3189 231.359 58.6269 229.733 58.6269H226.776C225.15 58.6269 223.819 57.3189 223.819 55.7202C223.819 54.1215 225.12 52.8135 226.776 52.8135Z" fill="url(#paint18_radial_91_680)"/>
</g>
<g filter="url(#filter10_ii_91_680)">
<path d="M262.108 66.01L264.208 68.0737C264.481 68.3428 264.699 68.6623 264.847 69.0139C264.995 69.3655 265.071 69.7424 265.071 70.1229C265.071 70.5035 264.995 70.8804 264.847 71.232C264.699 71.5836 264.481 71.9031 264.208 72.1722C263.934 72.4413 263.609 72.6547 263.251 72.8004C262.894 72.946 262.51 73.021 262.123 73.021C261.736 73.021 261.353 72.946 260.995 72.8004C260.637 72.6547 260.313 72.4413 260.039 72.1722L257.94 70.1084C257.666 69.8393 257.449 69.5198 257.301 69.1682C257.152 68.8166 257.076 68.4398 257.076 68.0592C257.076 67.6786 257.152 67.3018 257.301 66.9501C257.449 66.5985 257.666 66.2791 257.94 66.01C258.213 65.7408 258.538 65.5274 258.896 65.3817C259.254 65.2361 259.637 65.1611 260.024 65.1611C260.411 65.1611 260.794 65.2361 261.152 65.3817C261.51 65.5274 261.835 65.7408 262.108 66.01Z" fill="#9B93A5"/>
<path d="M262.108 66.01L264.208 68.0737C264.481 68.3428 264.699 68.6623 264.847 69.0139C264.995 69.3655 265.071 69.7424 265.071 70.1229C265.071 70.5035 264.995 70.8804 264.847 71.232C264.699 71.5836 264.481 71.9031 264.208 72.1722C263.934 72.4413 263.609 72.6547 263.251 72.8004C262.894 72.946 262.51 73.021 262.123 73.021C261.736 73.021 261.353 72.946 260.995 72.8004C260.637 72.6547 260.313 72.4413 260.039 72.1722L257.94 70.1084C257.666 69.8393 257.449 69.5198 257.301 69.1682C257.152 68.8166 257.076 68.4398 257.076 68.0592C257.076 67.6786 257.152 67.3018 257.301 66.9501C257.449 66.5985 257.666 66.2791 257.94 66.01C258.213 65.7408 258.538 65.5274 258.896 65.3817C259.254 65.2361 259.637 65.1611 260.024 65.1611C260.411 65.1611 260.794 65.2361 261.152 65.3817C261.51 65.5274 261.835 65.7408 262.108 66.01Z" fill="url(#paint19_radial_91_680)"/>
</g>
<g filter="url(#filter11_ii_91_680)">
<path d="M234.907 39.2973L237.006 41.3611C237.28 41.6302 237.497 41.9497 237.645 42.3013C237.793 42.6529 237.869 43.0297 237.869 43.4103C237.869 43.7909 237.793 44.1677 237.645 44.5193C237.497 44.8709 237.28 45.1904 237.006 45.4595C236.732 45.7286 236.407 45.9421 236.049 46.0877C235.692 46.2334 235.308 46.3083 234.921 46.3083C234.534 46.3083 234.151 46.2334 233.793 46.0877C233.436 45.9421 233.111 45.7286 232.837 45.4595L230.738 43.3958C230.464 43.1269 230.246 42.8074 230.098 42.4558C229.949 42.1042 229.873 41.7272 229.873 41.3465C229.873 40.9658 229.949 40.5889 230.098 40.2373C230.246 39.8856 230.464 39.5662 230.738 39.2973C231.891 38.1346 233.753 38.1346 234.907 39.2973Z" fill="#9B93A5"/>
<path d="M234.907 39.2973L237.006 41.3611C237.28 41.6302 237.497 41.9497 237.645 42.3013C237.793 42.6529 237.869 43.0297 237.869 43.4103C237.869 43.7909 237.793 44.1677 237.645 44.5193C237.497 44.8709 237.28 45.1904 237.006 45.4595C236.732 45.7286 236.407 45.9421 236.049 46.0877C235.692 46.2334 235.308 46.3083 234.921 46.3083C234.534 46.3083 234.151 46.2334 233.793 46.0877C233.436 45.9421 233.111 45.7286 232.837 45.4595L230.738 43.3958C230.464 43.1269 230.246 42.8074 230.098 42.4558C229.949 42.1042 229.873 41.7272 229.873 41.3465C229.873 40.9658 229.949 40.5889 230.098 40.2373C230.246 39.8856 230.464 39.5662 230.738 39.2973C231.891 38.1346 233.753 38.1346 234.907 39.2973Z" fill="url(#paint20_radial_91_680)"/>
</g>
<path d="M257.91 41.332L260.01 39.2683C260.283 38.9991 260.608 38.7857 260.966 38.64C261.324 38.4944 261.707 38.4194 262.094 38.4194C262.481 38.4194 262.864 38.4944 263.222 38.64C263.58 38.7857 263.905 38.9991 264.178 39.2683C264.452 39.5374 264.669 39.8568 264.817 40.2084C264.966 40.5601 265.042 40.9369 265.042 41.3175C265.042 41.6981 264.966 42.0749 264.817 42.4265C264.669 42.7781 264.452 43.0976 264.178 43.3667L262.079 45.4305C261.805 45.6996 261.48 45.9131 261.123 46.0587C260.765 46.2043 260.382 46.2793 259.995 46.2793C259.608 46.2793 259.224 46.2043 258.867 46.0587C258.509 45.9131 258.184 45.6996 257.91 45.4305C257.637 45.1614 257.419 44.8419 257.271 44.4903C257.123 44.1387 257.047 43.7618 257.047 43.3812C257.047 43.0007 257.123 42.6238 257.271 42.2722C257.419 41.9206 257.637 41.6011 257.91 41.332Z" fill="url(#paint21_linear_91_680)"/>
<g filter="url(#filter12_ii_91_680)">
<path d="M230.738 68.0447L232.838 65.9809C233.111 65.7118 233.436 65.4983 233.794 65.3527C234.152 65.207 234.535 65.1321 234.922 65.1321C235.309 65.1321 235.693 65.207 236.05 65.3527C236.408 65.4983 236.733 65.7118 237.007 65.9809C237.28 66.25 237.497 66.5695 237.646 66.9211C237.794 67.2727 237.87 67.6496 237.87 68.0301C237.87 68.4107 237.794 68.7876 237.646 69.1392C237.497 69.4908 237.28 69.8102 237.007 70.0794L234.907 72.1431C234.634 72.4122 234.309 72.6257 233.951 72.7713C233.593 72.917 233.21 72.9919 232.823 72.9919C232.436 72.9919 232.052 72.917 231.695 72.7713C231.337 72.6257 231.012 72.4122 230.738 72.1431C230.465 71.874 230.248 71.5545 230.099 71.2029C229.951 70.8513 229.875 70.4745 229.875 70.0939C229.875 69.7133 229.951 69.3365 230.099 68.9849C230.248 68.6332 230.465 68.3138 230.738 68.0447Z" fill="#9B93A5"/>
<path d="M230.738 68.0447L232.838 65.9809C233.111 65.7118 233.436 65.4983 233.794 65.3527C234.152 65.207 234.535 65.1321 234.922 65.1321C235.309 65.1321 235.693 65.207 236.05 65.3527C236.408 65.4983 236.733 65.7118 237.007 65.9809C237.28 66.25 237.497 66.5695 237.646 66.9211C237.794 67.2727 237.87 67.6496 237.87 68.0301C237.87 68.4107 237.794 68.7876 237.646 69.1392C237.497 69.4908 237.28 69.8102 237.007 70.0794L234.907 72.1431C234.634 72.4122 234.309 72.6257 233.951 72.7713C233.593 72.917 233.21 72.9919 232.823 72.9919C232.436 72.9919 232.052 72.917 231.695 72.7713C231.337 72.6257 231.012 72.4122 230.738 72.1431C230.465 71.874 230.248 71.5545 230.099 71.2029C229.951 70.8513 229.875 70.4745 229.875 70.0939C229.875 69.7133 229.951 69.3365 230.099 68.9849C230.248 68.6332 230.465 68.3138 230.738 68.0447Z" fill="url(#paint22_radial_91_680)"/>
</g>
<g filter="url(#filter13_ii_91_680)">
<path d="M245.373 57.784C245.099 57.5151 244.882 57.1956 244.734 56.844C244.585 56.4924 244.509 56.1154 244.509 55.7347C244.509 55.3541 244.585 54.9771 244.734 54.6255C244.882 54.2738 245.099 53.9544 245.373 53.6855L260.009 39.2973C260.283 39.0282 260.608 38.8147 260.965 38.6691C261.323 38.5234 261.706 38.4485 262.093 38.4485C262.48 38.4485 262.864 38.5234 263.221 38.6691C263.579 38.8147 263.904 39.0282 264.178 39.2973C264.451 39.5664 264.669 39.8859 264.817 40.2375C264.965 40.5891 265.041 40.966 265.041 41.3465C265.041 41.7271 264.965 42.104 264.817 42.4556C264.669 42.8072 264.451 43.1267 264.178 43.3958L249.542 57.784C249.269 58.0534 248.944 58.2672 248.586 58.4131C248.229 58.5589 247.845 58.634 247.458 58.634C247.071 58.634 246.687 58.5589 246.33 58.4131C245.972 58.2672 245.647 58.0534 245.373 57.784Z" fill="url(#paint23_linear_91_680)"/>
<path d="M245.373 57.784C245.099 57.5151 244.882 57.1956 244.734 56.844C244.585 56.4924 244.509 56.1154 244.509 55.7347C244.509 55.3541 244.585 54.9771 244.734 54.6255C244.882 54.2738 245.099 53.9544 245.373 53.6855L260.009 39.2973C260.283 39.0282 260.608 38.8147 260.965 38.6691C261.323 38.5234 261.706 38.4485 262.093 38.4485C262.48 38.4485 262.864 38.5234 263.221 38.6691C263.579 38.8147 263.904 39.0282 264.178 39.2973C264.451 39.5664 264.669 39.8859 264.817 40.2375C264.965 40.5891 265.041 40.966 265.041 41.3465C265.041 41.7271 264.965 42.104 264.817 42.4556C264.669 42.8072 264.451 43.1267 264.178 43.3958L249.542 57.784C249.269 58.0534 248.944 58.2672 248.586 58.4131C248.229 58.5589 247.845 58.634 247.458 58.634C247.071 58.634 246.687 58.5589 246.33 58.4131C245.972 58.2672 245.647 58.0534 245.373 57.784Z" fill="url(#paint24_linear_91_680)"/>
<path d="M245.373 57.784C245.099 57.5151 244.882 57.1956 244.734 56.844C244.585 56.4924 244.509 56.1154 244.509 55.7347C244.509 55.3541 244.585 54.9771 244.734 54.6255C244.882 54.2738 245.099 53.9544 245.373 53.6855L260.009 39.2973C260.283 39.0282 260.608 38.8147 260.965 38.6691C261.323 38.5234 261.706 38.4485 262.093 38.4485C262.48 38.4485 262.864 38.5234 263.221 38.6691C263.579 38.8147 263.904 39.0282 264.178 39.2973C264.451 39.5664 264.669 39.8859 264.817 40.2375C264.965 40.5891 265.041 40.966 265.041 41.3465C265.041 41.7271 264.965 42.104 264.817 42.4556C264.669 42.8072 264.451 43.1267 264.178 43.3958L249.542 57.784C249.269 58.0534 248.944 58.2672 248.586 58.4131C248.229 58.5589 247.845 58.634 247.458 58.634C247.071 58.634 246.687 58.5589 246.33 58.4131C245.972 58.2672 245.647 58.0534 245.373 57.784Z" fill="url(#paint25_radial_91_680)"/>
</g>
<g filter="url(#filter14_f_91_680)">
<path d="M262.389 41.021L247.443 55.6592" stroke="url(#paint26_linear_91_680)" stroke-width="0.5"/>
</g>
<defs>
<filter id="filter0_i_91_680" x="214.905" y="23.5319" width="18.2027" height="17.6983" filterUnits="userSpaceOnUse" color-interpolation-filters="sRGB">
<feFlood flood-opacity="0" result="BackgroundImageFix"/>
<feBlend mode="normal" in="SourceGraphic" in2="BackgroundImageFix" result="shape"/>
<feColorMatrix in="SourceAlpha" type="matrix" values="0 0 0 0 0 0 0 0 0 0 0 0 0 0 0 0 0 0 127 0" result="hardAlpha"/>
<feOffset dx="0.4" dy="-0.2"/>
<feGaussianBlur stdDeviation="0.5"/>
<feComposite in2="hardAlpha" operator="arithmetic" k2="-1" k3="1"/>
<feColorMatrix type="matrix" values="0 0 0 0 0.443137 0 0 0 0 0.403922 0 0 0 0 0.501961 0 0 0 1 0"/>
<feBlend mode="normal" in2="shape" result="effect1_innerShadow_91_680"/>
</filter>
<filter id="filter1_f_91_680" x="217.34" y="25.0835" width="61.2832" height="60.2737" filterUnits="userSpaceOnUse" color-interpolation-filters="sRGB">
<feFlood flood-opacity="0" result="BackgroundImageFix"/>
<feBlend mode="normal" in="SourceGraphic" in2="BackgroundImageFix" result="shape"/>
<feGaussianBlur stdDeviation="0.25" result="effect1_foregroundBlur_91_680"/>
</filter>
<filter id="filter2_f_91_680" x="218.356" y="27.0833" width="58.2324" height="57.2739" filterUnits="userSpaceOnUse" color-interpolation-filters="sRGB">
<feFlood flood-opacity="0" result="BackgroundImageFix"/>
<feBlend mode="normal" in="SourceGraphic" in2="BackgroundImageFix" result="shape"/>
<feGaussianBlur stdDeviation="0.375" result="effect1_foregroundBlur_91_680"/>
</filter>
<filter id="filter3_i_91_680" x="235.616" y="5.80615" width="24.1533" height="12.127" filterUnits="userSpaceOnUse" color-interpolation-filters="sRGB">
<feFlood flood-opacity="0" result="BackgroundImageFix"/>
<feBlend mode="normal" in="SourceGraphic" in2="BackgroundImageFix" result="shape"/>
<feColorMatrix in="SourceAlpha" type="matrix" values="0 0 0 0 0 0 0 0 0 0 0 0 0 0 0 0 0 0 127 0" result="hardAlpha"/>
<feOffset dx="0.5" dy="-0.5"/>
<feGaussianBlur stdDeviation="0.5"/>
<feComposite in2="hardAlpha" operator="arithmetic" k2="-1" k3="1"/>
<feColorMatrix type="matrix" values="0 0 0 0 0.145098 0 0 0 0 0.137255 0 0 0 0 0.25098 0 0 0 1 0"/>
<feBlend mode="normal" in2="shape" result="effect1_innerShadow_91_680"/>
</filter>
<filter id="filter4_f_91_680" x="221.103" y="29.7866" width="52.7412" height="51.8674" filterUnits="userSpaceOnUse" color-interpolation-filters="sRGB">
<feFlood flood-opacity="0" result="BackgroundImageFix"/>
<feBlend mode="normal" in="SourceGraphic" in2="BackgroundImageFix" result="shape"/>
<feGaussianBlur stdDeviation="0.25" result="effect1_foregroundBlur_91_680"/>
</filter>
<filter id="filter5_f_91_680" x="242.519" y="38.4125" width="21.7322" height="21.3855" filterUnits="userSpaceOnUse" color-interpolation-filters="sRGB">
<feFlood flood-opacity="0" result="BackgroundImageFix"/>
<feBlend mode="normal" in="SourceGraphic" in2="BackgroundImageFix" result="shape"/>
<feGaussianBlur stdDeviation="0.3" result="effect1_foregroundBlur_91_680"/>
</filter>
<filter id="filter6_ii_91_680" x="244.417" y="32.4666" width="6.51309" height="8.82021" filterUnits="userSpaceOnUse" color-interpolation-filters="sRGB">
<feFlood flood-opacity="0" result="BackgroundImageFix"/>
<feBlend mode="normal" in="SourceGraphic" in2="BackgroundImageFix" result="shape"/>
<feColorMatrix in="SourceAlpha" type="matrix" values="0 0 0 0 0 0 0 0 0 0 0 0 0 0 0 0 0 0 127 0" result="hardAlpha"/>
<feOffset dx="-0.1" dy="0.1"/>
<feGaussianBlur stdDeviation="0.2"/>
<feComposite in2="hardAlpha" operator="arithmetic" k2="-1" k3="1"/>
<feColorMatrix type="matrix" values="0 0 0 0 0.67451 0 0 0 0 0.592157 0 0 0 0 0.729412 0 0 0 1 0"/>
<feBlend mode="normal" in2="shape" result="effect1_innerShadow_91_680"/>
<feColorMatrix in="SourceAlpha" type="matrix" values="0 0 0 0 0 0 0 0 0 0 0 0 0 0 0 0 0 0 127 0" result="hardAlpha"/>
<feOffset dx="0.5"/>
<feGaussianBlur stdDeviation="0.5"/>
<feComposite in2="hardAlpha" operator="arithmetic" k2="-1" k3="1"/>
<feColorMatrix type="matrix" values="0 0 0 0 0.478431 0 0 0 0 0.443137 0 0 0 0 0.52549 0 0 0 1 0"/>
<feBlend mode="normal" in2="effect1_innerShadow_91_680" result="effect2_innerShadow_91_680"/>
</filter>
<filter id="filter7_ii_91_680" x="244.417" y="70.0037" width="6.51309" height="9.07021" filterUnits="userSpaceOnUse" color-interpolation-filters="sRGB">
<feFlood flood-opacity="0" result="BackgroundImageFix"/>
<feBlend mode="normal" in="SourceGraphic" in2="BackgroundImageFix" result="shape"/>
<feColorMatrix in="SourceAlpha" type="matrix" values="0 0 0 0 0 0 0 0 0 0 0 0 0 0 0 0 0 0 127 0" result="hardAlpha"/>
<feOffset dx="-0.1" dy="0.1"/>
<feGaussianBlur stdDeviation="0.2"/>
<feComposite in2="hardAlpha" operator="arithmetic" k2="-1" k3="1"/>
<feColorMatrix type="matrix" values="0 0 0 0 0.67451 0 0 0 0 0.592157 0 0 0 0 0.729412 0 0 0 1 0"/>
<feBlend mode="normal" in2="shape" result="effect1_innerShadow_91_680"/>
<feColorMatrix in="SourceAlpha" type="matrix" values="0 0 0 0 0 0 0 0 0 0 0 0 0 0 0 0 0 0 127 0" result="hardAlpha"/>
<feOffset dx="0.5" dy="-0.25"/>
<feGaussianBlur stdDeviation="0.5"/>
<feComposite in2="hardAlpha" operator="arithmetic" k2="-1" k3="1"/>
<feColorMatrix type="matrix" values="0 0 0 0 0.478431 0 0 0 0 0.443137 0 0 0 0 0.52549 0 0 0 1 0"/>
<feBlend mode="normal" in2="effect1_innerShadow_91_680" result="effect2_innerShadow_91_680"/>
</filter>
<filter id="filter8_ii_91_680" x="262.156" y="52.3135" width="8.97012" height="6.41348" filterUnits="userSpaceOnUse" color-interpolation-filters="sRGB">
<feFlood flood-opacity="0" result="BackgroundImageFix"/>
<feBlend mode="normal" in="SourceGraphic" in2="BackgroundImageFix" result="shape"/>
<feColorMatrix in="SourceAlpha" type="matrix" values="0 0 0 0 0 0 0 0 0 0 0 0 0 0 0 0 0 0 127 0" result="hardAlpha"/>
<feOffset dx="-0.1" dy="0.1"/>
<feGaussianBlur stdDeviation="0.2"/>
<feComposite in2="hardAlpha" operator="arithmetic" k2="-1" k3="1"/>
<feColorMatrix type="matrix" values="0 0 0 0 0.67451 0 0 0 0 0.592157 0 0 0 0 0.729412 0 0 0 1 0"/>
<feBlend mode="normal" in2="shape" result="effect1_innerShadow_91_680"/>
<feColorMatrix in="SourceAlpha" type="matrix" values="0 0 0 0 0 0 0 0 0 0 0 0 0 0 0 0 0 0 127 0" result="hardAlpha"/>
<feOffset dy="-0.5"/>
<feGaussianBlur stdDeviation="0.5"/>
<feComposite in2="hardAlpha" operator="arithmetic" k2="-1" k3="1"/>
<feColorMatrix type="matrix" values="0 0 0 0 0.478431 0 0 0 0 0.443137 0 0 0 0 0.52549 0 0 0 1 0"/>
<feBlend mode="normal" in2="effect1_innerShadow_91_680" result="effect2_innerShadow_91_680"/>
</filter>
<filter id="filter9_ii_91_680" x="223.719" y="52.3135" width="9.47012" height="6.41348" filterUnits="userSpaceOnUse" color-interpolation-filters="sRGB">
<feFlood flood-opacity="0" result="BackgroundImageFix"/>
<feBlend mode="normal" in="SourceGraphic" in2="BackgroundImageFix" result="shape"/>
<feColorMatrix in="SourceAlpha" type="matrix" values="0 0 0 0 0 0 0 0 0 0 0 0 0 0 0 0 0 0 127 0" result="hardAlpha"/>
<feOffset dx="-0.1" dy="0.1"/>
<feGaussianBlur stdDeviation="0.2"/>
<feComposite in2="hardAlpha" operator="arithmetic" k2="-1" k3="1"/>
<feColorMatrix type="matrix" values="0 0 0 0 0.67451 0 0 0 0 0.592157 0 0 0 0 0.729412 0 0 0 1 0"/>
<feBlend mode="normal" in2="shape" result="effect1_innerShadow_91_680"/>
<feColorMatrix in="SourceAlpha" type="matrix" values="0 0 0 0 0 0 0 0 0 0 0 0 0 0 0 0 0 0 127 0" result="hardAlpha"/>
<feOffset dx="0.5" dy="-0.5"/>
<feGaussianBlur stdDeviation="0.5"/>
<feComposite in2="hardAlpha" operator="arithmetic" k2="-1" k3="1"/>
<feColorMatrix type="matrix" values="0 0 0 0 0.478431 0 0 0 0 0.443137 0 0 0 0 0.52549 0 0 0 1 0"/>
<feBlend mode="normal" in2="effect1_innerShadow_91_680" result="effect2_innerShadow_91_680"/>
</filter>
<filter id="filter10_ii_91_680" x="256.976" y="64.6611" width="8.59512" height="8.45986" filterUnits="userSpaceOnUse" color-interpolation-filters="sRGB">
<feFlood flood-opacity="0" result="BackgroundImageFix"/>
<feBlend mode="normal" in="SourceGraphic" in2="BackgroundImageFix" result="shape"/>
<feColorMatrix in="SourceAlpha" type="matrix" values="0 0 0 0 0 0 0 0 0 0 0 0 0 0 0 0 0 0 127 0" result="hardAlpha"/>
<feOffset dx="-0.1" dy="0.1"/>
<feGaussianBlur stdDeviation="0.2"/>
<feComposite in2="hardAlpha" operator="arithmetic" k2="-1" k3="1"/>
<feColorMatrix type="matrix" values="0 0 0 0 0.67451 0 0 0 0 0.592157 0 0 0 0 0.729412 0 0 0 1 0"/>
<feBlend mode="normal" in2="shape" result="effect1_innerShadow_91_680"/>
<feColorMatrix in="SourceAlpha" type="matrix" values="0 0 0 0 0 0 0 0 0 0 0 0 0 0 0 0 0 0 127 0" result="hardAlpha"/>
<feOffset dx="0.5" dy="-0.5"/>
<feGaussianBlur stdDeviation="0.5"/>
<feComposite in2="hardAlpha" operator="arithmetic" k2="-1" k3="1"/>
<feColorMatrix type="matrix" values="0 0 0 0 0.478431 0 0 0 0 0.443137 0 0 0 0 0.52549 0 0 0 1 0"/>
<feBlend mode="normal" in2="effect1_innerShadow_91_680" result="effect2_innerShadow_91_680"/>
</filter>
<filter id="filter11_ii_91_680" x="229.773" y="38.4253" width="8.59609" height="7.98306" filterUnits="userSpaceOnUse" color-interpolation-filters="sRGB">
<feFlood flood-opacity="0" result="BackgroundImageFix"/>
<feBlend mode="normal" in="SourceGraphic" in2="BackgroundImageFix" result="shape"/>
<feColorMatrix in="SourceAlpha" type="matrix" values="0 0 0 0 0 0 0 0 0 0 0 0 0 0 0 0 0 0 127 0" result="hardAlpha"/>
<feOffset dx="-0.1" dy="0.1"/>
<feGaussianBlur stdDeviation="0.2"/>
<feComposite in2="hardAlpha" operator="arithmetic" k2="-1" k3="1"/>
<feColorMatrix type="matrix" values="0 0 0 0 0.67451 0 0 0 0 0.592157 0 0 0 0 0.729412 0 0 0 1 0"/>
<feBlend mode="normal" in2="shape" result="effect1_innerShadow_91_680"/>
<feColorMatrix in="SourceAlpha" type="matrix" values="0 0 0 0 0 0 0 0 0 0 0 0 0 0 0 0 0 0 127 0" result="hardAlpha"/>
<feOffset dx="0.5"/>
<feGaussianBlur stdDeviation="0.5"/>
<feComposite in2="hardAlpha" operator="arithmetic" k2="-1" k3="1"/>
<feColorMatrix type="matrix" values="0 0 0 0 0.478431 0 0 0 0 0.443137 0 0 0 0 0.52549 0 0 0 1 0"/>
<feBlend mode="normal" in2="effect1_innerShadow_91_680" result="effect2_innerShadow_91_680"/>
</filter>
<filter id="filter12_ii_91_680" x="229.775" y="64.8821" width="8.59512" height="8.20986" filterUnits="userSpaceOnUse" color-interpolation-filters="sRGB">
<feFlood flood-opacity="0" result="BackgroundImageFix"/>
<feBlend mode="normal" in="SourceGraphic" in2="BackgroundImageFix" result="shape"/>
<feColorMatrix in="SourceAlpha" type="matrix" values="0 0 0 0 0 0 0 0 0 0 0 0 0 0 0 0 0 0 127 0" result="hardAlpha"/>
<feOffset dx="-0.1" dy="0.1"/>
<feGaussianBlur stdDeviation="0.2"/>
<feComposite in2="hardAlpha" operator="arithmetic" k2="-1" k3="1"/>
<feColorMatrix type="matrix" values="0 0 0 0 0.67451 0 0 0 0 0.592157 0 0 0 0 0.729412 0 0 0 1 0"/>
<feBlend mode="normal" in2="shape" result="effect1_innerShadow_91_680"/>
<feColorMatrix in="SourceAlpha" type="matrix" values="0 0 0 0 0 0 0 0 0 0 0 0 0 0 0 0 0 0 127 0" result="hardAlpha"/>
<feOffset dx="0.5" dy="-0.25"/>
<feGaussianBlur stdDeviation="0.5"/>
<feComposite in2="hardAlpha" operator="arithmetic" k2="-1" k3="1"/>
<feColorMatrix type="matrix" values="0 0 0 0 0.478431 0 0 0 0 0.443137 0 0 0 0 0.52549 0 0 0 1 0"/>
<feBlend mode="normal" in2="effect1_innerShadow_91_680" result="effect2_innerShadow_91_680"/>
</filter>
<filter id="filter13_ii_91_680" x="244.509" y="38.2485" width="20.5322" height="20.6355" filterUnits="userSpaceOnUse" color-interpolation-filters="sRGB">
<feFlood flood-opacity="0" result="BackgroundImageFix"/>
<feBlend mode="normal" in="SourceGraphic" in2="BackgroundImageFix" result="shape"/>
<feColorMatrix in="SourceAlpha" type="matrix" values="0 0 0 0 0 0 0 0 0 0 0 0 0 0 0 0 0 0 127 0" result="hardAlpha"/>
<feOffset dy="0.25"/>
<feGaussianBlur stdDeviation="0.25"/>
<feComposite in2="hardAlpha" operator="arithmetic" k2="-1" k3="1"/>
<feColorMatrix type="matrix" values="0 0 0 0 0.533333 0 0 0 0 0.129412 0 0 0 0 0.192157 0 0 0 1 0"/>
<feBlend mode="normal" in2="shape" result="effect1_innerShadow_91_680"/>
<feColorMatrix in="SourceAlpha" type="matrix" values="0 0 0 0 0 0 0 0 0 0 0 0 0 0 0 0 0 0 127 0" result="hardAlpha"/>
<feOffset dy="-0.2"/>
<feGaussianBlur stdDeviation="0.25"/>
<feComposite in2="hardAlpha" operator="arithmetic" k2="-1" k3="1"/>
<feColorMatrix type="matrix" values="0 0 0 0 0.717647 0 0 0 0 0.25098 0 0 0 0 0.482353 0 0 0 1 0"/>
<feBlend mode="normal" in2="effect1_innerShadow_91_680" result="effect2_innerShadow_91_680"/>
</filter>
<filter id="filter14_f_91_680" x="246.669" y="40.2423" width="16.4959" height="16.1956" filterUnits="userSpaceOnUse" color-interpolation-filters="sRGB">
<feFlood flood-opacity="0" result="BackgroundImageFix"/>
<feBlend mode="normal" in="SourceGraphic" in2="BackgroundImageFix" result="shape"/>
<feGaussianBlur stdDeviation="0.3" result="effect1_foregroundBlur_91_680"/>
</filter>
<linearGradient id="paint0_linear_91_680" x1="241.56" y1="23.3105" x2="251.319" y2="23.3105" gradientUnits="userSpaceOnUse">
<stop stop-color="#66646D"/>
<stop offset="1" stop-color="#A49FAC"/>
</linearGradient>
<linearGradient id="paint1_linear_91_680" x1="253.046" y1="16.7414" x2="251.198" y2="20.7854" gradientUnits="userSpaceOnUse">
<stop stop-color="#686475"/>
<stop offset="1" stop-color="#686475" stop-opacity="0"/>
</linearGradient>
<linearGradient id="paint2_linear_91_680" x1="221.475" y1="36.3965" x2="231.445" y2="26.6724" gradientUnits="userSpaceOnUse">
<stop stop-color="#948C9D"/>
<stop offset="1" stop-color="#A19DA8"/>
</linearGradient>
<linearGradient id="paint3_linear_91_680" x1="275.147" y1="27.6531" x2="269.255" y2="34.2931" gradientUnits="userSpaceOnUse">
<stop stop-color="#B7B5BD"/>
<stop offset="1" stop-color="#9993A0"/>
</linearGradient>
<linearGradient id="paint4_linear_91_680" x1="264.707" y1="25.8364" x2="267.157" y2="28.3285" gradientUnits="userSpaceOnUse">
<stop stop-color="#74717D"/>
<stop offset="1" stop-color="#74717D" stop-opacity="0"/>
</linearGradient>
<linearGradient id="paint5_linear_91_680" x1="277.782" y1="38.9602" x2="276.735" y2="37.9425" gradientUnits="userSpaceOnUse">
<stop stop-color="#918A9D"/>
<stop offset="1" stop-color="#918A9D" stop-opacity="0"/>
</linearGradient>
<linearGradient id="paint6_linear_91_680" x1="245.559" y1="23.7463" x2="245.559" y2="87.6939" gradientUnits="userSpaceOnUse">
<stop offset="0.374" stop-color="#4C2250"/>
<stop offset="1" stop-color="#272E63"/>
</linearGradient>
<linearGradient id="paint7_linear_91_680" x1="271.452" y1="25.8364" x2="232.068" y2="75.9254" gradientUnits="userSpaceOnUse">
<stop stop-color="#5C3760"/>
<stop offset="1" stop-color="#3F3E6A"/>
</linearGradient>
<linearGradient id="paint8_linear_91_680" x1="245.805" y1="27.8333" x2="245.805" y2="83.6072" gradientUnits="userSpaceOnUse">
<stop stop-color="#3A1D41"/>
<stop offset="1" stop-color="#2E2A44"/>
</linearGradient>
<linearGradient id="paint9_linear_91_680" x1="247.443" y1="6.30615" x2="247.443" y2="17.933" gradientUnits="userSpaceOnUse">
<stop stop-color="#4D224F"/>
<stop offset="1" stop-color="#1C1F54"/>
</linearGradient>
<linearGradient id="paint10_linear_91_680" x1="259.269" y1="10.8522" x2="255.349" y2="10.8522" gradientUnits="userSpaceOnUse">
<stop stop-color="#5C375F"/>
<stop offset="1" stop-color="#5C375F" stop-opacity="0"/>
</linearGradient>
<linearGradient id="paint11_linear_91_680" x1="224.331" y1="64.8037" x2="273.779" y2="41.4529" gradientUnits="userSpaceOnUse">
<stop stop-color="#938D9C"/>
<stop offset="1" stop-color="#897C91"/>
</linearGradient>
<radialGradient id="paint12_radial_91_680" cx="0" cy="0" r="1" gradientUnits="userSpaceOnUse" gradientTransform="translate(237.728 74.9715) rotate(-55.3076) scale(46.4029 65.1562)">
<stop offset="0.455" stop-color="#E4DDEB"/>
<stop offset="1" stop-color="#D2C2DB"/>
</radialGradient>
<radialGradient id="paint13_radial_91_680" cx="0" cy="0" r="1" gradientUnits="userSpaceOnUse" gradientTransform="translate(223.406 69.163) rotate(-24.1436) scale(52.8538 52.2623)">
<stop offset="0.81" stop-color="#AD98B7" stop-opacity="0"/>
<stop offset="1" stop-color="#AD98B7"/>
</radialGradient>
<linearGradient id="paint14_linear_91_680" x1="255.03" y1="44.4626" x2="240.947" y2="58.1603" gradientUnits="userSpaceOnUse">
<stop stop-color="#B7A1AC"/>
<stop offset="1" stop-color="#BB9CC1"/>
</linearGradient>
<radialGradient id="paint15_radial_91_680" cx="0" cy="0" r="1" gradientUnits="userSpaceOnUse" gradientTransform="translate(250.663 40.0066) rotate(-146.432) scale(4.43552 5.206)">
<stop stop-color="#ABA5B3"/>
<stop offset="1" stop-color="#ABA5B3" stop-opacity="0"/>
</radialGradient>
<radialGradient id="paint16_radial_91_680" cx="0" cy="0" r="1" gradientUnits="userSpaceOnUse" gradientTransform="translate(249.277 70.2537) rotate(108.747) scale(5.61155 3.67522)">
<stop stop-color="#ABA5B3"/>
<stop offset="1" stop-color="#ABA5B3" stop-opacity="0"/>
</radialGradient>
<linearGradient id="paint17_linear_91_680" x1="266.691" y1="51.5432" x2="266.691" y2="54.5401" gradientUnits="userSpaceOnUse">
<stop stop-color="#867F8D"/>
<stop offset="1" stop-color="#867F8D" stop-opacity="0"/>
</linearGradient>
<radialGradient id="paint18_radial_91_680" cx="0" cy="0" r="1" gradientUnits="userSpaceOnUse" gradientTransform="translate(231.259 53.5419) rotate(136.857) scale(4.1179 2.72869)">
<stop stop-color="#ABA5B3"/>
<stop offset="1" stop-color="#ABA5B3" stop-opacity="0"/>
</radialGradient>
<radialGradient id="paint19_radial_91_680" cx="0" cy="0" r="1" gradientUnits="userSpaceOnUse" gradientTransform="translate(260.086 64.6235) rotate(79.5093) scale(5.41981 3.43474)">
<stop stop-color="#ABA5B3"/>
<stop offset="1" stop-color="#ABA5B3" stop-opacity="0"/>
</radialGradient>
<radialGradient id="paint20_radial_91_680" cx="0" cy="0" r="1" gradientUnits="userSpaceOnUse" gradientTransform="translate(237.174 44.4567) rotate(178.423) scale(3.30162 3.23695)">
<stop stop-color="#A69FAF"/>
<stop offset="1" stop-color="#A69FAF" stop-opacity="0"/>
</radialGradient>
<linearGradient id="paint21_linear_91_680" x1="264.193" y1="39.2944" x2="258.026" y2="45.5646" gradientUnits="userSpaceOnUse">
<stop stop-color="#9B9B9B"/>
<stop offset="1" stop-color="#D3D3D3"/>
</linearGradient>
<radialGradient id="paint22_radial_91_680" cx="0" cy="0" r="1" gradientUnits="userSpaceOnUse" gradientTransform="translate(237.874 66.9851) rotate(143.691) scale(4.96239 3.07986)">
<stop stop-color="#ABA5B3"/>
<stop offset="1" stop-color="#ABA5B3" stop-opacity="0"/>
</radialGradient>
<linearGradient id="paint23_linear_91_680" x1="247.981" y1="55.0836" x2="264.059" y2="38.7327" gradientUnits="userSpaceOnUse">
<stop stop-color="#C9287B"/>
<stop offset="1" stop-color="#D82044"/>
</linearGradient>
<linearGradient id="paint24_linear_91_680" x1="245.823" y1="57.6125" x2="248.188" y2="55.3632" gradientUnits="userSpaceOnUse">
<stop stop-color="#9F346B"/>
<stop offset="1" stop-color="#9F346B" stop-opacity="0"/>
</linearGradient>
<radialGradient id="paint25_radial_91_680" cx="0" cy="0" r="1" gradientUnits="userSpaceOnUse" gradientTransform="translate(263.592 40.6096) rotate(138.347) scale(2.93715 2.93174)">
<stop stop-color="#DF5460"/>
<stop offset="1" stop-color="#DF5460" stop-opacity="0"/>
</radialGradient>
<linearGradient id="paint26_linear_91_680" x1="263.59" y1="40.8669" x2="246.236" y2="58.8847" gradientUnits="userSpaceOnUse">
<stop stop-color="#E14D5F"/>
<stop offset="1" stop-color="#E14D5F" stop-opacity="0"/>
</linearGradient>
</defs>
</svg>
